<svg xmlns="http://www.w3.org/2000/svg" xmlns:xlink="http://www.w3.org/1999/xlink" contentStyleType="text/css" data-diagram-type="EBNF" height="824px" preserveAspectRatio="none" style="width:529px;height:824px;background:#FFFFFF;" version="1.1" viewBox="0 0 529 824" width="529px" zoomAndPan="magnify"><title>SpecCompiler: Attributes (spec_attribute_values)</title><defs/><g><g class="title" data-source-line="1"><text fill="#000000" font-family="sans-serif" font-size="14" font-weight="bold" lengthAdjust="spacing" textLength="362.6396" x="81.7827" y="32.9951">SpecCompiler: Attributes (spec_attribute_values)</text></g><path d="M10,52.2969 L10,77.4297 L467.1475,77.4297 L467.1475,62.2969 L457.1475,52.2969 L10,52.2969" fill="#FEFFDD" style="stroke:#181818;stroke-width:0.5;"/><path d="M457.1475,52.2969 L457.1475,62.2969 L467.1475,62.2969 L457.1475,52.2969" fill="#FEFFDD" style="stroke:#181818;stroke-width:0.5;"/><text fill="#000000" font-family="sans-serif" font-size="13" lengthAdjust="spacing" textLength="427.8828" x="20.1323" y="69.3638">A blockquote becomes an attribute block when its first paragraph</text><path d="M10,97.4297 L10,122.5625 L436.1646,122.5625 L436.1646,107.4297 L426.1646,97.4297 L10,97.4297" fill="#FEFFDD" style="stroke:#181818;stroke-width:0.5;"/><path d="M426.1646,97.4297 L426.1646,107.4297 L436.1646,107.4297 L426.1646,97.4297" fill="#FEFFDD" style="stroke:#181818;stroke-width:0.5;"/><text fill="#000000" font-family="sans-serif" font-size="13" lengthAdjust="spacing" textLength="396.8999" x="20.1323" y="114.4966">starts with Key followed by colon. Otherwise it is plain prose.</text><path d="M10,142.5625 L10,167.6953 L335.0718,167.6953 L335.0718,152.5625 L325.0718,142.5625 L10,142.5625" fill="#FEFFDD" style="stroke:#181818;stroke-width:0.5;"/><path d="M325.0718,142.5625 L325.0718,152.5625 L335.0718,152.5625 L325.0718,142.5625" fill="#FEFFDD" style="stroke:#181818;stroke-width:0.5;"/><text fill="#000000" font-family="sans-serif" font-size="13" lengthAdjust="spacing" textLength="295.8071" x="20.1323" y="159.6294">Multiple attributes can share one blockquote.</text><path d="M10,187.6953 L10,212.8281 L517.2051,212.8281 L517.2051,197.6953 L507.2051,187.6953 L10,187.6953" fill="#FEFFDD" style="stroke:#181818;stroke-width:0.5;"/><path d="M507.2051,187.6953 L507.2051,197.6953 L517.2051,197.6953 L507.2051,187.6953" fill="#FEFFDD" style="stroke:#181818;stroke-width:0.5;"/><text fill="#000000" font-family="sans-serif" font-size="13" lengthAdjust="spacing" textLength="477.9404" x="20.1323" y="204.7622">Continuation blocks between key: paragraphs extend the previous value.</text><text fill="#000000" font-family="sans-serif" font-size="14" font-weight="bold" lengthAdjust="spacing" textLength="172.0264" x="10" y="240.8232">spec_attribute_values</text><line style="stroke:#181818;stroke-width:1.5;" x1="40" x2="40" y1="267.2734" y2="267.2734"/><rect fill="none" height="26.2969" style="stroke:#181818;stroke-width:0.5;" width="21.7305" x="40" y="254.125"/><text fill="#000000" font-family="sans-serif" font-size="14" lengthAdjust="spacing" textLength="11.7305" x="45" y="272.1201">&gt;</text><line style="stroke:#181818;stroke-width:1.5;" x1="61.7305" x2="81.7305" y1="267.2734" y2="267.2734"/><rect fill="#F1F1F1" height="26.2969" rx="5" ry="5" style="stroke:#181818;stroke-width:1.5;" width="73.5605" x="81.7305" y="254.125"/><text fill="#000000" font-family="sans-serif" font-size="14" lengthAdjust="spacing" textLength="63.5605" x="86.7305" y="272.1201">AttrEntry</text><line style="stroke:#181818;stroke-width:1.5;" x1="155.291" x2="175.291" y1="267.2734" y2="267.2734"/><line style="stroke:#181818;stroke-width:1.5;" x1="175.291" x2="326.8516" y1="267.2734" y2="267.2734"/><path d="M233.9152,267.2734 L233.9152,264.2734 L239.9152,267.2734 L233.9152,270.2734 L233.9152,267.2734" fill="#181818"/><path d="M175.291,267.2734 C184.291,267.2734 187.291,275.8477 187.291,284.8477 C187.291,293.8477 190.291,302.4219 199.291,302.4219" fill="none" style="stroke:#181818;stroke-width:1.5;"/><path d="M302.8516,302.4219 C311.8516,302.4219 314.8516,293.8477 314.8516,284.8477 C314.8516,275.8477 317.8516,267.2734 326.8516,267.2734" fill="none" style="stroke:#181818;stroke-width:1.5;"/><path d="M207.291,294.4219 C207.291,300.4219 209.291,302.4219 215.291,302.4219" fill="none" style="stroke:#181818;stroke-width:1.5;"/><line style="stroke:#181818;stroke-width:1.5;" x1="207.291" x2="207.291" y1="290.2734" y2="294.4219"/><path d="M207.291,290.2734 C207.291,284.2734 209.291,282.2734 215.291,282.2734" fill="none" style="stroke:#181818;stroke-width:1.5;"/><line style="stroke:#181818;stroke-width:1.5;" x1="214.291" x2="287.8516" y1="282.2734" y2="282.2734"/><path d="M256.4273,282.2734 L256.4273,279.2734 L250.4273,282.2734 L256.4273,285.2734 L256.4273,282.2734" fill="#181818"/><path d="M294.8516,294.4219 C294.8516,300.4219 292.8516,302.4219 286.8516,302.4219" fill="none" style="stroke:#181818;stroke-width:1.5;"/><line style="stroke:#181818;stroke-width:1.5;" x1="294.8516" x2="294.8516" y1="290.2734" y2="294.4219"/><path d="M286.8516,282.2734 C292.8516,282.2734 294.8516,284.2734 294.8516,290.2734" fill="none" style="stroke:#181818;stroke-width:1.5;"/><line style="stroke:#181818;stroke-width:1.5;" x1="199.291" x2="214.291" y1="302.4219" y2="302.4219"/><line style="stroke:#181818;stroke-width:1.5;" x1="287.8516" x2="302.8516" y1="302.4219" y2="302.4219"/><rect fill="#F1F1F1" height="26.2969" rx="5" ry="5" style="stroke:#181818;stroke-width:1.5;" width="73.5605" x="214.291" y="289.2734"/><text fill="#000000" font-family="sans-serif" font-size="14" lengthAdjust="spacing" textLength="63.5605" x="219.291" y="307.2686">AttrEntry</text><ellipse cx="14" cy="267.2734" fill="none" rx="4" ry="4" style="stroke:#181818;stroke-width:2;"/><ellipse cx="356.8516" cy="267.2734" fill="#181818" rx="4" ry="4" style="stroke:#181818;stroke-width:1;"/><line style="stroke:#181818;stroke-width:1.5;" x1="18" x2="40" y1="267.2734" y2="267.2734"/><line style="stroke:#181818;stroke-width:1.5;" x1="326.8516" x2="352.8516" y1="267.2734" y2="267.2734"/><path d="M337.8516,267.2734 L337.8516,264.2734 L343.8516,267.2734 L337.8516,270.2734 L337.8516,267.2734" fill="#181818"/><path d="M10,335.5703 L10,360.7031 L424.9482,360.7031 L424.9482,345.5703 L414.9482,335.5703 L10,335.5703" fill="#FEFFDD" style="stroke:#181818;stroke-width:0.5;"/><path d="M414.9482,335.5703 L414.9482,345.5703 L424.9482,345.5703 L414.9482,335.5703" fill="#FEFFDD" style="stroke:#181818;stroke-width:0.5;"/><text fill="#000000" font-family="sans-serif" font-size="13" lengthAdjust="spacing" textLength="385.6836" x="20.1323" y="352.6372">Each attribute: a key: paragraph plus optional continuation</text><text fill="#000000" font-family="sans-serif" font-size="14" font-weight="bold" lengthAdjust="spacing" textLength="73.377" x="10" y="388.6982">AttrEntry</text><line style="stroke:#181818;stroke-width:1.5;" x1="40" x2="40" y1="415.1484" y2="415.1484"/><rect fill="#F1F1F1" height="26.2969" rx="5" ry="5" style="stroke:#181818;stroke-width:1.5;" width="67.668" x="40" y="402"/><text fill="#000000" font-family="sans-serif" font-size="14" lengthAdjust="spacing" textLength="57.668" x="45" y="419.9951">AttrPara</text><line style="stroke:#181818;stroke-width:1.5;" x1="107.668" x2="127.668" y1="415.1484" y2="415.1484"/><line style="stroke:#181818;stroke-width:1.5;" x1="127.668" x2="343.2676" y1="415.1484" y2="415.1484"/><path d="M211.9078,415.1484 L211.9078,412.1484 L217.9078,415.1484 L211.9078,418.1484 L211.9078,415.1484" fill="#181818"/><path d="M127.668,415.1484 C136.668,415.1484 139.668,423.7227 139.668,432.7227 C139.668,441.7227 142.668,450.2969 151.668,450.2969" fill="none" style="stroke:#181818;stroke-width:1.5;"/><path d="M319.2676,450.2969 C328.2676,450.2969 331.2676,441.7227 331.2676,432.7227 C331.2676,423.7227 334.2676,415.1484 343.2676,415.1484" fill="none" style="stroke:#181818;stroke-width:1.5;"/><path d="M159.668,442.2969 C159.668,448.2969 161.668,450.2969 167.668,450.2969" fill="none" style="stroke:#181818;stroke-width:1.5;"/><line style="stroke:#181818;stroke-width:1.5;" x1="159.668" x2="159.668" y1="438.1484" y2="442.2969"/><path d="M159.668,438.1484 C159.668,432.1484 161.668,430.1484 167.668,430.1484" fill="none" style="stroke:#181818;stroke-width:1.5;"/><line style="stroke:#181818;stroke-width:1.5;" x1="166.668" x2="304.2676" y1="430.1484" y2="430.1484"/><path d="M247.2277,430.1484 L247.2277,427.1484 L241.2277,430.1484 L247.2277,433.1484 L247.2277,430.1484" fill="#181818"/><path d="M311.2676,442.2969 C311.2676,448.2969 309.2676,450.2969 303.2676,450.2969" fill="none" style="stroke:#181818;stroke-width:1.5;"/><line style="stroke:#181818;stroke-width:1.5;" x1="311.2676" x2="311.2676" y1="438.1484" y2="442.2969"/><path d="M303.2676,430.1484 C309.2676,430.1484 311.2676,432.1484 311.2676,438.1484" fill="none" style="stroke:#181818;stroke-width:1.5;"/><line style="stroke:#181818;stroke-width:1.5;" x1="151.668" x2="166.668" y1="450.2969" y2="450.2969"/><line style="stroke:#181818;stroke-width:1.5;" x1="304.2676" x2="319.2676" y1="450.2969" y2="450.2969"/><rect fill="#F1F1F1" height="26.2969" rx="5" ry="5" style="stroke:#181818;stroke-width:1.5;" width="137.5996" x="166.668" y="437.1484"/><text fill="#000000" font-family="sans-serif" font-size="14" lengthAdjust="spacing" textLength="127.5996" x="171.668" y="455.1436">ContinuationBlock</text><ellipse cx="14" cy="415.1484" fill="none" rx="4" ry="4" style="stroke:#181818;stroke-width:2;"/><ellipse cx="373.2676" cy="415.1484" fill="#181818" rx="4" ry="4" style="stroke:#181818;stroke-width:1;"/><line style="stroke:#181818;stroke-width:1.5;" x1="18" x2="40" y1="415.1484" y2="415.1484"/><line style="stroke:#181818;stroke-width:1.5;" x1="343.2676" x2="369.2676" y1="415.1484" y2="415.1484"/><path d="M354.2676,415.1484 L354.2676,412.1484 L360.2676,415.1484 L354.2676,418.1484 L354.2676,415.1484" fill="#181818"/><path d="M10,483.4453 L10,508.5781 L376.1221,508.5781 L376.1221,493.4453 L366.1221,483.4453 L10,483.4453" fill="#FEFFDD" style="stroke:#181818;stroke-width:0.5;"/><path d="M366.1221,483.4453 L366.1221,493.4453 L376.1221,493.4453 L366.1221,483.4453" fill="#FEFFDD" style="stroke:#181818;stroke-width:0.5;"/><text fill="#000000" font-family="sans-serif" font-size="13" lengthAdjust="spacing" textLength="336.8574" x="20.1323" y="500.5122">&gt; key: value &#8212; Key matches [A-Za-z_][A-Za-z0-9_]*</text><text fill="#000000" font-family="sans-serif" font-size="14" font-weight="bold" lengthAdjust="spacing" textLength="67.1836" x="10" y="536.5732">AttrPara</text><line style="stroke:#181818;stroke-width:1.5;" x1="40" x2="40" y1="563.0234" y2="563.0234"/><rect fill="#F1F1F1" height="26.2969" rx="5" ry="5" style="stroke:#181818;stroke-width:1.5;" width="36.0791" x="40" y="549.875"/><text fill="#000000" font-family="sans-serif" font-size="14" lengthAdjust="spacing" textLength="26.0791" x="45" y="567.8701">Key</text><line style="stroke:#181818;stroke-width:1.5;" x1="76.0791" x2="96.0791" y1="563.0234" y2="563.0234"/><rect fill="none" height="26.2969" style="stroke:#181818;stroke-width:0.5;" width="14.7168" x="96.0791" y="549.875"/><text fill="#000000" font-family="sans-serif" font-size="14" lengthAdjust="spacing" textLength="4.7168" x="101.0791" y="567.8701">:</text><line style="stroke:#181818;stroke-width:1.5;" x1="110.7959" x2="130.7959" y1="563.0234" y2="563.0234"/><rect fill="#F1F1F1" height="26.2969" rx="5" ry="5" style="stroke:#181818;stroke-width:1.5;" width="49.5322" x="130.7959" y="549.875"/><text fill="#000000" font-family="sans-serif" font-size="14" lengthAdjust="spacing" textLength="39.5322" x="135.7959" y="567.8701">Value</text><ellipse cx="14" cy="563.0234" fill="none" rx="4" ry="4" style="stroke:#181818;stroke-width:2;"/><ellipse cx="210.3281" cy="563.0234" fill="#181818" rx="4" ry="4" style="stroke:#181818;stroke-width:1;"/><line style="stroke:#181818;stroke-width:1.5;" x1="18" x2="40" y1="563.0234" y2="563.0234"/><line style="stroke:#181818;stroke-width:1.5;" x1="180.3281" x2="206.3281" y1="563.0234" y2="563.0234"/><path d="M191.3281,563.0234 L191.3281,560.0234 L197.3281,563.0234 L191.3281,566.0234 L191.3281,563.0234" fill="#181818"/><path d="M10,596.1719 L10,621.3047 L393.4194,621.3047 L393.4194,606.1719 L383.4194,596.1719 L10,596.1719" fill="#FEFFDD" style="stroke:#181818;stroke-width:0.5;"/><path d="M383.4194,596.1719 L383.4194,606.1719 L393.4194,606.1719 L383.4194,596.1719" fill="#FEFFDD" style="stroke:#181818;stroke-width:0.5;"/><text fill="#000000" font-family="sans-serif" font-size="13" lengthAdjust="spacing" textLength="354.1548" x="20.1323" y="613.2388">Non-key blocks extend the preceding attribute's value</text><text fill="#000000" font-family="sans-serif" font-size="14" font-weight="bold" lengthAdjust="spacing" textLength="144.5049" x="10" y="649.2998">ContinuationBlock</text><rect fill="#F1F1F1" height="26.2969" rx="5" ry="5" style="stroke:#181818;stroke-width:1.5;" width="82.3379" x="64" y="662.6016"/><text fill="#000000" font-family="sans-serif" font-size="14" lengthAdjust="spacing" textLength="72.3379" x="69" y="680.5967">Paragraph</text><line style="stroke:#181818;stroke-width:1.5;" x1="40" x2="64" y1="675.75" y2="675.75"/><line style="stroke:#181818;stroke-width:1.5;" x1="146.3379" x2="180.0039" y1="675.75" y2="675.75"/><rect fill="#F1F1F1" height="26.2969" rx="5" ry="5" style="stroke:#181818;stroke-width:1.5;" width="74.832" x="64" y="698.8984"/><text fill="#000000" font-family="sans-serif" font-size="14" lengthAdjust="spacing" textLength="64.832" x="69" y="716.8936">BulletList</text><path d="M52,700.0469 C52,709.0469 55,712.0469 64,712.0469" fill="none" style="stroke:#181818;stroke-width:1.5;"/><line style="stroke:#181818;stroke-width:1.5;" x1="138.832" x2="156.0039" y1="712.0469" y2="712.0469"/><path d="M168.0039,700.0469 C168.0039,709.0469 165.0039,712.0469 156.0039,712.0469" fill="none" style="stroke:#181818;stroke-width:1.5;"/><rect fill="#F1F1F1" height="26.2969" rx="5" ry="5" style="stroke:#181818;stroke-width:1.5;" width="92.0039" x="64" y="735.1953"/><text fill="#000000" font-family="sans-serif" font-size="14" lengthAdjust="spacing" textLength="82.0039" x="69" y="753.1904">OrderedList</text><path d="M52,736.3438 C52,745.3438 55,748.3438 64,748.3438" fill="none" style="stroke:#181818;stroke-width:1.5;"/><line style="stroke:#181818;stroke-width:1.5;" x1="156.0039" x2="156.0039" y1="748.3438" y2="748.3438"/><path d="M168.0039,736.3438 C168.0039,745.3438 165.0039,748.3438 156.0039,748.3438" fill="none" style="stroke:#181818;stroke-width:1.5;"/><rect fill="#F1F1F1" height="26.2969" rx="5" ry="5" style="stroke:#181818;stroke-width:1.5;" width="48.5205" x="64" y="771.4922"/><text fill="#000000" font-family="sans-serif" font-size="14" lengthAdjust="spacing" textLength="38.5205" x="69" y="789.4873">Table</text><line style="stroke:#181818;stroke-width:1.5;" x1="112.5205" x2="156.0039" y1="784.6406" y2="784.6406"/><path d="M132.2622,784.6406 L132.2622,781.6406 L138.2622,784.6406 L132.2622,787.6406 L132.2622,784.6406" fill="#181818"/><path d="M52,772.6406 C52,781.6406 55,784.6406 64,784.6406" fill="none" style="stroke:#181818;stroke-width:1.5;"/><line style="stroke:#181818;stroke-width:1.5;" x1="52" x2="52" y1="687.75" y2="772.6406"/><path d="M40,675.75 C49,675.75 52,678.75 52,687.75" fill="none" style="stroke:#181818;stroke-width:1.5;"/><path d="M168.0039,772.6406 C168.0039,781.6406 165.0039,784.6406 156.0039,784.6406" fill="none" style="stroke:#181818;stroke-width:1.5;"/><line style="stroke:#181818;stroke-width:1.5;" x1="168.0039" x2="168.0039" y1="687.75" y2="772.6406"/><path d="M168.0039,687.75 C168.0039,678.75 171.0039,675.75 180.0039,675.75" fill="none" style="stroke:#181818;stroke-width:1.5;"/><ellipse cx="14" cy="675.75" fill="none" rx="4" ry="4" style="stroke:#181818;stroke-width:2;"/><ellipse cx="210.0039" cy="675.75" fill="#181818" rx="4" ry="4" style="stroke:#181818;stroke-width:1;"/><line style="stroke:#181818;stroke-width:1.5;" x1="18" x2="40" y1="675.75" y2="675.75"/><line style="stroke:#181818;stroke-width:1.5;" x1="180.0039" x2="206.0039" y1="675.75" y2="675.75"/><path d="M191.0039,675.75 L191.0039,672.75 L197.0039,675.75 L191.0039,678.75 L191.0039,675.75" fill="#181818"/><!--SRC=[RPBRRjf054NV_HL7l9H4606YKUEAA51e9G819OI7LX4QsmSyoZ3ZpiKkRIhr8_g5_P8U6uZfvSsUozvhxpdNnZ9jCPHhpt8h4EvJZ8Ogbm7qhTKyT1ODr0sjhjXnOPKnuT2SUVLpw4CeLFJqsIcB46AajdIUINWvlD-7F449t1fOSsqif4opZMPf0kUbJ8bX8ESsWHlSmLe9eNAC8Tn1f8IIJPZP17NE3P8CS0EfO5n2gfN1va5bweJbAQLW5Nj4C2PX6a59F84ztdcdfENICSkLt6yRoc5p9Dudt0KLgW7yOb76G23aYnbNpa3PHIdc_RSbw47jgjOewnn9gtSD-5RzmFUtNa4nOb5IKGV0_lAcjEIbqeAI2Qha19giAxrUgJsdUuNFQRX1-Gu7lwkzVea8ltxyB4lVCXibHFofxtza_jVLu-6ZvL-k7i-FFeKssT251jG2IhOiHFQojqhw97piyS- -8eovt5GfNntAAuJ_1Ut1_2NyCmoS46Wdd4Rd6MOwHetnuM_1Gb7ONvDLESZUN31f7wOJo52Reg5sizFgl6wsM_K5sTsg35fTQ7U3JYleNiBWRW75Fet3X_a4Z78wGeX9lUGaWJDlp386TuuWj_GwinJbU7XpN82HpBXMSelIUkFbj3fmqVK7DAttg0a5bbDlY6j6Gqet8bMq4S33uht_nfimkN5iGzeegGnNl6K0abB_1W00]--></g></svg>