<svg xmlns="http://www.w3.org/2000/svg" xmlns:xlink="http://www.w3.org/1999/xlink" contentStyleType="text/css" data-diagram-type="EBNF" height="722px" preserveAspectRatio="none" style="width:613px;height:722px;background:#FFFFFF;" version="1.1" viewBox="0 0 613 722" width="613px" zoomAndPan="magnify"><title>SpecCompiler: Document Structure</title><defs/><g><g class="title" data-source-line="1"><text fill="#000000" font-family="sans-serif" font-size="14" font-weight="bold" lengthAdjust="spacing" textLength="252.6357" x="177.644" y="32.9951">SpecCompiler: Document Structure</text></g><path d="M10,52.2969 L10,77.4297 L457.1753,77.4297 L457.1753,62.2969 L447.1753,52.2969 L10,52.2969" fill="#FEFFDD" style="stroke:#181818;stroke-width:0.5;"/><path d="M447.1753,52.2969 L447.1753,62.2969 L457.1753,62.2969 L447.1753,52.2969" fill="#FEFFDD" style="stroke:#181818;stroke-width:0.5;"/><text fill="#000000" font-family="sans-serif" font-size="13" lengthAdjust="spacing" textLength="417.9106" x="20.1323" y="69.3638">What you type in Markdown to create specifications and objects</text><text fill="#000000" font-family="sans-serif" font-size="14" font-weight="bold" lengthAdjust="spacing" textLength="80.2471" x="10" y="105.4248">Document</text><rect fill="#F1F1F1" height="26.2969" rx="5" ry="5" style="stroke:#181818;stroke-width:1.5;" width="99.8857" x="40" y="118.7266"/><text fill="#000000" font-family="sans-serif" font-size="14" lengthAdjust="spacing" textLength="89.8857" x="45" y="136.7217">Specification</text><ellipse cx="14" cy="131.875" fill="none" rx="4" ry="4" style="stroke:#181818;stroke-width:2;"/><ellipse cx="169.8857" cy="131.875" fill="#181818" rx="4" ry="4" style="stroke:#181818;stroke-width:1;"/><line style="stroke:#181818;stroke-width:1.5;" x1="18" x2="40" y1="131.875" y2="131.875"/><line style="stroke:#181818;stroke-width:1.5;" x1="139.8857" x2="165.8857" y1="131.875" y2="131.875"/><path d="M150.8857,131.875 L150.8857,128.875 L156.8857,131.875 L150.8857,134.875 L150.8857,131.875" fill="#181818"/><text fill="#000000" font-family="sans-serif" font-size="14" font-weight="bold" lengthAdjust="spacing" textLength="102.4092" x="10" y="173.0186">Specification</text><line style="stroke:#181818;stroke-width:1.5;" x1="40" x2="40" y1="199.4688" y2="199.4688"/><rect fill="none" height="26.2969" style="stroke:#181818;stroke-width:0.5;" width="21.7305" x="40" y="186.3203"/><text fill="#000000" font-family="sans-serif" font-size="14" lengthAdjust="spacing" textLength="11.7305" x="45" y="204.3154">#</text><line style="stroke:#181818;stroke-width:1.5;" x1="61.7305" x2="81.7305" y1="199.4688" y2="199.4688"/><rect fill="#F1F1F1" height="26.2969" rx="5" ry="5" style="stroke:#181818;stroke-width:1.5;" width="82.6387" x="81.7305" y="186.3203"/><text fill="#000000" font-family="sans-serif" font-size="14" lengthAdjust="spacing" textLength="72.6387" x="86.7305" y="204.3154">HeaderSig</text><line style="stroke:#181818;stroke-width:1.5;" x1="164.3691" x2="184.3691" y1="199.4688" y2="199.4688"/><line style="stroke:#181818;stroke-width:1.5;" x1="184.3691" x2="473.46" y1="199.4688" y2="199.4688"/><path d="M298.0055,199.4688 L298.0055,196.4688 L304.0055,199.4688 L298.0055,202.4688 L298.0055,199.4688" fill="#181818"/><path d="M184.3691,199.4688 C193.3691,199.4688 196.3691,208.043 196.3691,217.043 C196.3691,226.043 199.3691,234.6172 208.3691,234.6172" fill="none" style="stroke:#181818;stroke-width:1.5;"/><path d="M449.46,234.6172 C458.46,234.6172 461.46,226.043 461.46,217.043 C461.46,208.043 464.46,199.4688 473.46,199.4688" fill="none" style="stroke:#181818;stroke-width:1.5;"/><path d="M216.3691,226.6172 C216.3691,232.6172 218.3691,234.6172 224.3691,234.6172" fill="none" style="stroke:#181818;stroke-width:1.5;"/><line style="stroke:#181818;stroke-width:1.5;" x1="216.3691" x2="216.3691" y1="222.4688" y2="226.6172"/><path d="M216.3691,222.4688 C216.3691,216.4688 218.3691,214.4688 224.3691,214.4688" fill="none" style="stroke:#181818;stroke-width:1.5;"/><line style="stroke:#181818;stroke-width:1.5;" x1="223.3691" x2="434.46" y1="214.4688" y2="214.4688"/><path d="M348.0236,214.4688 L348.0236,211.4688 L342.0236,214.4688 L348.0236,217.4688 L348.0236,214.4688" fill="#181818"/><path d="M441.46,226.6172 C441.46,232.6172 439.46,234.6172 433.46,234.6172" fill="none" style="stroke:#181818;stroke-width:1.5;"/><line style="stroke:#181818;stroke-width:1.5;" x1="441.46" x2="441.46" y1="222.4688" y2="226.6172"/><path d="M433.46,214.4688 C439.46,214.4688 441.46,216.4688 441.46,222.4688" fill="none" style="stroke:#181818;stroke-width:1.5;"/><line style="stroke:#181818;stroke-width:1.5;" x1="208.3691" x2="223.3691" y1="234.6172" y2="234.6172"/><line style="stroke:#181818;stroke-width:1.5;" x1="434.46" x2="449.46" y1="234.6172" y2="234.6172"/><rect fill="#F1F1F1" height="26.2969" rx="5" ry="5" style="stroke:#181818;stroke-width:1.5;" width="163.0908" x="247.3691" y="221.4688"/><text fill="#000000" font-family="sans-serif" font-size="14" lengthAdjust="spacing" textLength="153.0908" x="252.3691" y="239.4639">spec_attribute_values</text><line style="stroke:#181818;stroke-width:1.5;" x1="223.3691" x2="247.3691" y1="234.6172" y2="234.6172"/><line style="stroke:#181818;stroke-width:1.5;" x1="410.46" x2="434.46" y1="234.6172" y2="234.6172"/><rect fill="#F1F1F1" height="26.2969" rx="5" ry="5" style="stroke:#181818;stroke-width:1.5;" width="99.9268" x="247.3691" y="257.7656"/><text fill="#000000" font-family="sans-serif" font-size="14" lengthAdjust="spacing" textLength="89.9268" x="252.3691" y="275.7607">spec_objects</text><path d="M235.3691,258.9141 C235.3691,267.9141 238.3691,270.9141 247.3691,270.9141" fill="none" style="stroke:#181818;stroke-width:1.5;"/><line style="stroke:#181818;stroke-width:1.5;" x1="347.2959" x2="410.46" y1="270.9141" y2="270.9141"/><path d="M376.8779,270.9141 L376.8779,267.9141 L382.8779,270.9141 L376.8779,273.9141 L376.8779,270.9141" fill="#181818"/><path d="M422.46,258.9141 C422.46,267.9141 419.46,270.9141 410.46,270.9141" fill="none" style="stroke:#181818;stroke-width:1.5;"/><rect fill="#F1F1F1" height="26.2969" rx="5" ry="5" style="stroke:#181818;stroke-width:1.5;" width="88.2373" x="247.3691" y="294.0625"/><text fill="#000000" font-family="sans-serif" font-size="14" lengthAdjust="spacing" textLength="78.2373" x="252.3691" y="312.0576">spec_floats</text><path d="M235.3691,295.2109 C235.3691,304.2109 238.3691,307.2109 247.3691,307.2109" fill="none" style="stroke:#181818;stroke-width:1.5;"/><line style="stroke:#181818;stroke-width:1.5;" x1="335.6064" x2="410.46" y1="307.2109" y2="307.2109"/><path d="M371.0332,307.2109 L371.0332,304.2109 L377.0332,307.2109 L371.0332,310.2109 L371.0332,307.2109" fill="#181818"/><path d="M422.46,295.2109 C422.46,304.2109 419.46,307.2109 410.46,307.2109" fill="none" style="stroke:#181818;stroke-width:1.5;"/><rect fill="#F1F1F1" height="26.2969" rx="5" ry="5" style="stroke:#181818;stroke-width:1.5;" width="89.0234" x="247.3691" y="330.3594"/><text fill="#000000" font-family="sans-serif" font-size="14" lengthAdjust="spacing" textLength="79.0234" x="252.3691" y="348.3545">spec_views</text><path d="M235.3691,331.5078 C235.3691,340.5078 238.3691,343.5078 247.3691,343.5078" fill="none" style="stroke:#181818;stroke-width:1.5;"/><line style="stroke:#181818;stroke-width:1.5;" x1="336.3926" x2="410.46" y1="343.5078" y2="343.5078"/><path d="M371.4263,343.5078 L371.4263,340.5078 L377.4263,343.5078 L371.4263,346.5078 L371.4263,343.5078" fill="#181818"/><path d="M422.46,331.5078 C422.46,340.5078 419.46,343.5078 410.46,343.5078" fill="none" style="stroke:#181818;stroke-width:1.5;"/><rect fill="#F1F1F1" height="26.2969" rx="5" ry="5" style="stroke:#181818;stroke-width:1.5;" width="86.5352" x="247.3691" y="366.6563"/><text fill="#000000" font-family="sans-serif" font-size="14" lengthAdjust="spacing" textLength="76.5352" x="252.3691" y="384.6514">ProseBlock</text><line style="stroke:#181818;stroke-width:1.5;" x1="333.9043" x2="410.46" y1="379.8047" y2="379.8047"/><path d="M370.1821,379.8047 L370.1821,376.8047 L376.1821,379.8047 L370.1821,382.8047 L370.1821,379.8047" fill="#181818"/><path d="M235.3691,367.8047 C235.3691,376.8047 238.3691,379.8047 247.3691,379.8047" fill="none" style="stroke:#181818;stroke-width:1.5;"/><line style="stroke:#181818;stroke-width:1.5;" x1="235.3691" x2="235.3691" y1="246.6172" y2="367.8047"/><path d="M223.3691,234.6172 C232.3691,234.6172 235.3691,237.6172 235.3691,246.6172" fill="none" style="stroke:#181818;stroke-width:1.5;"/><path d="M422.46,367.8047 C422.46,376.8047 419.46,379.8047 410.46,379.8047" fill="none" style="stroke:#181818;stroke-width:1.5;"/><line style="stroke:#181818;stroke-width:1.5;" x1="422.46" x2="422.46" y1="246.6172" y2="367.8047"/><path d="M422.46,246.6172 C422.46,237.6172 425.46,234.6172 434.46,234.6172" fill="none" style="stroke:#181818;stroke-width:1.5;"/><ellipse cx="14" cy="199.4688" fill="none" rx="4" ry="4" style="stroke:#181818;stroke-width:2;"/><ellipse cx="503.46" cy="199.4688" fill="#181818" rx="4" ry="4" style="stroke:#181818;stroke-width:1;"/><line style="stroke:#181818;stroke-width:1.5;" x1="18" x2="40" y1="199.4688" y2="199.4688"/><line style="stroke:#181818;stroke-width:1.5;" x1="473.46" x2="499.46" y1="199.4688" y2="199.4688"/><path d="M484.46,199.4688 L484.46,196.4688 L490.46,199.4688 L484.46,202.4688 L484.46,199.4688" fill="#181818"/><text fill="#000000" font-family="sans-serif" font-size="14" font-weight="bold" lengthAdjust="spacing" textLength="100.4063" x="10" y="420.9482">spec_objects</text><line style="stroke:#181818;stroke-width:1.5;" x1="40" x2="40" y1="447.3984" y2="447.3984"/><rect fill="none" height="26.2969" style="stroke:#181818;stroke-width:0.5;" width="117.1943" x="40" y="434.25"/><text fill="#000000" font-family="sans-serif" font-size="14" lengthAdjust="spacing" textLength="107.1943" x="45" y="452.2451">##...######</text><line style="stroke:#181818;stroke-width:1.5;" x1="157.1943" x2="177.1943" y1="447.3984" y2="447.3984"/><rect fill="#F1F1F1" height="26.2969" rx="5" ry="5" style="stroke:#181818;stroke-width:1.5;" width="82.6387" x="177.1943" y="434.25"/><text fill="#000000" font-family="sans-serif" font-size="14" lengthAdjust="spacing" textLength="72.6387" x="182.1943" y="452.2451">HeaderSig</text><line style="stroke:#181818;stroke-width:1.5;" x1="259.833" x2="279.833" y1="447.3984" y2="447.3984"/><line style="stroke:#181818;stroke-width:1.5;" x1="279.833" x2="568.9238" y1="447.3984" y2="447.3984"/><path d="M393.4693,447.3984 L393.4693,444.3984 L399.4693,447.3984 L393.4693,450.3984 L393.4693,447.3984" fill="#181818"/><path d="M279.833,447.3984 C288.833,447.3984 291.833,455.9727 291.833,464.9727 C291.833,473.9727 294.833,482.5469 303.833,482.5469" fill="none" style="stroke:#181818;stroke-width:1.5;"/><path d="M544.9238,482.5469 C553.9238,482.5469 556.9238,473.9727 556.9238,464.9727 C556.9238,455.9727 559.9238,447.3984 568.9238,447.3984" fill="none" style="stroke:#181818;stroke-width:1.5;"/><path d="M311.833,474.5469 C311.833,480.5469 313.833,482.5469 319.833,482.5469" fill="none" style="stroke:#181818;stroke-width:1.5;"/><line style="stroke:#181818;stroke-width:1.5;" x1="311.833" x2="311.833" y1="470.3984" y2="474.5469"/><path d="M311.833,470.3984 C311.833,464.3984 313.833,462.3984 319.833,462.3984" fill="none" style="stroke:#181818;stroke-width:1.5;"/><line style="stroke:#181818;stroke-width:1.5;" x1="318.833" x2="529.9238" y1="462.3984" y2="462.3984"/><path d="M443.4875,462.3984 L443.4875,459.3984 L437.4875,462.3984 L443.4875,465.3984 L443.4875,462.3984" fill="#181818"/><path d="M536.9238,474.5469 C536.9238,480.5469 534.9238,482.5469 528.9238,482.5469" fill="none" style="stroke:#181818;stroke-width:1.5;"/><line style="stroke:#181818;stroke-width:1.5;" x1="536.9238" x2="536.9238" y1="470.3984" y2="474.5469"/><path d="M528.9238,462.3984 C534.9238,462.3984 536.9238,464.3984 536.9238,470.3984" fill="none" style="stroke:#181818;stroke-width:1.5;"/><line style="stroke:#181818;stroke-width:1.5;" x1="303.833" x2="318.833" y1="482.5469" y2="482.5469"/><line style="stroke:#181818;stroke-width:1.5;" x1="529.9238" x2="544.9238" y1="482.5469" y2="482.5469"/><rect fill="#F1F1F1" height="26.2969" rx="5" ry="5" style="stroke:#181818;stroke-width:1.5;" width="163.0908" x="342.833" y="469.3984"/><text fill="#000000" font-family="sans-serif" font-size="14" lengthAdjust="spacing" textLength="153.0908" x="347.833" y="487.3936">spec_attribute_values</text><line style="stroke:#181818;stroke-width:1.5;" x1="318.833" x2="342.833" y1="482.5469" y2="482.5469"/><line style="stroke:#181818;stroke-width:1.5;" x1="505.9238" x2="529.9238" y1="482.5469" y2="482.5469"/><rect fill="#F1F1F1" height="26.2969" rx="5" ry="5" style="stroke:#181818;stroke-width:1.5;" width="88.2373" x="342.833" y="505.6953"/><text fill="#000000" font-family="sans-serif" font-size="14" lengthAdjust="spacing" textLength="78.2373" x="347.833" y="523.6904">spec_floats</text><path d="M330.833,506.8438 C330.833,515.8438 333.833,518.8438 342.833,518.8438" fill="none" style="stroke:#181818;stroke-width:1.5;"/><line style="stroke:#181818;stroke-width:1.5;" x1="431.0703" x2="505.9238" y1="518.8438" y2="518.8438"/><path d="M466.4971,518.8438 L466.4971,515.8438 L472.4971,518.8438 L466.4971,521.8438 L466.4971,518.8438" fill="#181818"/><path d="M517.9238,506.8438 C517.9238,515.8438 514.9238,518.8438 505.9238,518.8438" fill="none" style="stroke:#181818;stroke-width:1.5;"/><rect fill="#F1F1F1" height="26.2969" rx="5" ry="5" style="stroke:#181818;stroke-width:1.5;" width="89.0234" x="342.833" y="541.9922"/><text fill="#000000" font-family="sans-serif" font-size="14" lengthAdjust="spacing" textLength="79.0234" x="347.833" y="559.9873">spec_views</text><path d="M330.833,543.1406 C330.833,552.1406 333.833,555.1406 342.833,555.1406" fill="none" style="stroke:#181818;stroke-width:1.5;"/><line style="stroke:#181818;stroke-width:1.5;" x1="431.8564" x2="505.9238" y1="555.1406" y2="555.1406"/><path d="M466.8901,555.1406 L466.8901,552.1406 L472.8901,555.1406 L466.8901,558.1406 L466.8901,555.1406" fill="#181818"/><path d="M517.9238,543.1406 C517.9238,552.1406 514.9238,555.1406 505.9238,555.1406" fill="none" style="stroke:#181818;stroke-width:1.5;"/><rect fill="#F1F1F1" height="26.2969" rx="5" ry="5" style="stroke:#181818;stroke-width:1.5;" width="86.5352" x="342.833" y="578.2891"/><text fill="#000000" font-family="sans-serif" font-size="14" lengthAdjust="spacing" textLength="76.5352" x="347.833" y="596.2842">ProseBlock</text><line style="stroke:#181818;stroke-width:1.5;" x1="429.3682" x2="505.9238" y1="591.4375" y2="591.4375"/><path d="M465.646,591.4375 L465.646,588.4375 L471.646,591.4375 L465.646,594.4375 L465.646,591.4375" fill="#181818"/><path d="M330.833,579.4375 C330.833,588.4375 333.833,591.4375 342.833,591.4375" fill="none" style="stroke:#181818;stroke-width:1.5;"/><line style="stroke:#181818;stroke-width:1.5;" x1="330.833" x2="330.833" y1="494.5469" y2="579.4375"/><path d="M318.833,482.5469 C327.833,482.5469 330.833,485.5469 330.833,494.5469" fill="none" style="stroke:#181818;stroke-width:1.5;"/><path d="M517.9238,579.4375 C517.9238,588.4375 514.9238,591.4375 505.9238,591.4375" fill="none" style="stroke:#181818;stroke-width:1.5;"/><line style="stroke:#181818;stroke-width:1.5;" x1="517.9238" x2="517.9238" y1="494.5469" y2="579.4375"/><path d="M517.9238,494.5469 C517.9238,485.5469 520.9238,482.5469 529.9238,482.5469" fill="none" style="stroke:#181818;stroke-width:1.5;"/><ellipse cx="14" cy="447.3984" fill="none" rx="4" ry="4" style="stroke:#181818;stroke-width:2;"/><ellipse cx="598.9238" cy="447.3984" fill="#181818" rx="4" ry="4" style="stroke:#181818;stroke-width:1;"/><line style="stroke:#181818;stroke-width:1.5;" x1="18" x2="40" y1="447.3984" y2="447.3984"/><line style="stroke:#181818;stroke-width:1.5;" x1="568.9238" x2="594.9238" y1="447.3984" y2="447.3984"/><path d="M579.9238,447.3984 L579.9238,444.3984 L585.9238,447.3984 L579.9238,450.3984 L579.9238,447.3984" fill="#181818"/><text fill="#000000" font-family="sans-serif" font-size="14" font-weight="bold" lengthAdjust="spacing" textLength="81.9834" x="10" y="632.5811">HeaderSig</text><line style="stroke:#181818;stroke-width:1.5;" x1="40" x2="40" y1="659.0313" y2="659.0313"/><line style="stroke:#181818;stroke-width:1.5;" x1="40" x2="190.3232" y1="659.0313" y2="659.0313"/><path d="M98.1293,659.0313 L98.1293,656.0313 L104.1293,659.0313 L98.1293,662.0313 L98.1293,659.0313" fill="#181818"/><path d="M40,659.0313 C49,659.0313 52,661.6055 52,670.6055 C52,679.6055 55,682.1797 64,682.1797" fill="none" style="stroke:#181818;stroke-width:1.5;"/><path d="M166.3232,682.1797 C175.3232,682.1797 178.3232,679.6055 178.3232,670.6055 C178.3232,661.6055 181.3232,659.0313 190.3232,659.0313" fill="none" style="stroke:#181818;stroke-width:1.5;"/><line style="stroke:#181818;stroke-width:1.5;" x1="64" x2="64" y1="682.1797" y2="682.1797"/><rect fill="#F1F1F1" height="26.2969" rx="5" ry="5" style="stroke:#181818;stroke-width:1.5;" width="67.6064" x="64" y="669.0313"/><text fill="#000000" font-family="sans-serif" font-size="14" lengthAdjust="spacing" textLength="57.6064" x="69" y="687.0264">TypeRef</text><line style="stroke:#181818;stroke-width:1.5;" x1="131.6064" x2="151.6064" y1="682.1797" y2="682.1797"/><rect fill="none" height="26.2969" style="stroke:#181818;stroke-width:0.5;" width="14.7168" x="151.6064" y="669.0313"/><text fill="#000000" font-family="sans-serif" font-size="14" lengthAdjust="spacing" textLength="4.7168" x="156.6064" y="687.0264">:</text><line style="stroke:#181818;stroke-width:1.5;" x1="190.3232" x2="210.3232" y1="659.0313" y2="659.0313"/><rect fill="#F1F1F1" height="26.2969" rx="5" ry="5" style="stroke:#181818;stroke-width:1.5;" width="40.9395" x="210.3232" y="645.8828"/><text fill="#000000" font-family="sans-serif" font-size="14" lengthAdjust="spacing" textLength="30.9395" x="215.3232" y="663.8779">Text</text><line style="stroke:#181818;stroke-width:1.5;" x1="251.2627" x2="271.2627" y1="659.0313" y2="659.0313"/><line style="stroke:#181818;stroke-width:1.5;" x1="271.2627" x2="396.6143" y1="659.0313" y2="659.0313"/><path d="M319.4033,659.0313 L319.4033,656.0313 L325.4033,659.0313 L319.4033,662.0313 L319.4033,659.0313" fill="#181818"/><path d="M271.2627,659.0313 C280.2627,659.0313 283.2627,661.6055 283.2627,670.6055 C283.2627,679.6055 286.2627,682.1797 295.2627,682.1797" fill="none" style="stroke:#181818;stroke-width:1.5;"/><path d="M372.6143,682.1797 C381.6143,682.1797 384.6143,679.6055 384.6143,670.6055 C384.6143,661.6055 387.6143,659.0313 396.6143,659.0313" fill="none" style="stroke:#181818;stroke-width:1.5;"/><line style="stroke:#181818;stroke-width:1.5;" x1="295.2627" x2="295.2627" y1="682.1797" y2="682.1797"/><rect fill="none" height="26.2969" style="stroke:#181818;stroke-width:0.5;" width="24" x="295.2627" y="669.0313"/><text fill="#000000" font-family="sans-serif" font-size="14" lengthAdjust="spacing" textLength="14" x="300.2627" y="687.0264">@</text><line style="stroke:#181818;stroke-width:1.5;" x1="319.2627" x2="339.2627" y1="682.1797" y2="682.1797"/><rect fill="#F1F1F1" height="26.2969" rx="5" ry="5" style="stroke:#181818;stroke-width:1.5;" width="33.3516" x="339.2627" y="669.0313"/><text fill="#000000" font-family="sans-serif" font-size="14" lengthAdjust="spacing" textLength="23.3516" x="344.2627" y="687.0264">PID</text><ellipse cx="14" cy="659.0313" fill="none" rx="4" ry="4" style="stroke:#181818;stroke-width:2;"/><ellipse cx="426.6143" cy="659.0313" fill="#181818" rx="4" ry="4" style="stroke:#181818;stroke-width:1;"/><line style="stroke:#181818;stroke-width:1.5;" x1="18" x2="40" y1="659.0313" y2="659.0313"/><line style="stroke:#181818;stroke-width:1.5;" x1="396.6143" x2="422.6143" y1="659.0313" y2="659.0313"/><path d="M407.6143,659.0313 L407.6143,656.0313 L413.6143,659.0313 L407.6143,662.0313 L407.6143,659.0313" fill="#181818"/><!--SRC=[bP9RRzf048NVzrSScHU870iGhH9NaH1rRmHQ14xoK4NHiXxJRPnTj9vrYfh-zwn9GvItTj_ENCutcjbnpT8nhKqfM7D5M6r9PVRUfCYiydTa62jsNh5t9Bf7kFeX6JlhmRijGHlCfRijGWFOGZcIJAY3XowragojgI5D0Rl-IOfh7FM4E1YVxMc7odT2lD8X7tMY69z95kHMUXFZzzxxHZ8xlVPCDusiFDLuU8e_K_xAihBoHJMQxbknSBQcIMNLBVu4vAl6bjX9agIpV__5_YVOmIwGlYCFArnI6IDA8rp7oEaNno4UZGDvyIN3TMWPaodszn6BIXg-cC_GaAlR_GoION_u9XdqkxadVBKD-YCCHkcmduvECLdcQFCzqVsqcA6stYb2eUkd-OD1Jqnb8x7qXlKTfVYs9JFDpfy3-60QxQnfRoMcb_ENWhUZuuaE7uDS60MNSv5HANt5eKFPGfjDYelyu_69c4cpyN8JlCc8zpRukbqAuwlg4G00]--></g></svg>