<svg xmlns="http://www.w3.org/2000/svg" xmlns:xlink="http://www.w3.org/1999/xlink" contentStyleType="text/css" data-diagram-type="EBNF" height="433px" preserveAspectRatio="none" style="width:544px;height:433px;background:#FFFFFF;" version="1.1" viewBox="0 0 544 433" width="544px" zoomAndPan="magnify"><title>SpecCompiler: Floating Objects (spec_floats)</title><defs/><g><g class="title" data-source-line="1"><text fill="#000000" font-family="sans-serif" font-size="14" font-weight="bold" lengthAdjust="spacing" textLength="327.6328" x="106.9446" y="32.9951">SpecCompiler: Floating Objects (spec_floats)</text></g><path d="M10,52.2969 L10,77.4297 L532.522,77.4297 L532.522,62.2969 L522.522,52.2969 L10,52.2969" fill="#FEFFDD" style="stroke:#181818;stroke-width:0.5;"/><path d="M522.522,52.2969 L522.522,62.2969 L532.522,62.2969 L522.522,52.2969" fill="#FEFFDD" style="stroke:#181818;stroke-width:0.5;"/><text fill="#000000" font-family="sans-serif" font-size="13" lengthAdjust="spacing" textLength="493.2573" x="20.1323" y="69.3638">Fenced code blocks with type:label become numbered, captioned elements</text><path d="M10,97.4297 L10,122.5625 L377.5566,122.5625 L377.5566,107.4297 L367.5566,97.4297 L10,97.4297" fill="#FEFFDD" style="stroke:#181818;stroke-width:0.5;"/><path d="M367.5566,97.4297 L367.5566,107.4297 L377.5566,107.4297 L367.5566,97.4297" fill="#FEFFDD" style="stroke:#181818;stroke-width:0.5;"/><text fill="#000000" font-family="sans-serif" font-size="13" lengthAdjust="spacing" textLength="338.292" x="20.1323" y="114.4966">The type must exist in the model's spec_float_types</text><text fill="#000000" font-family="sans-serif" font-size="14" font-weight="bold" lengthAdjust="spacing" textLength="88.1289" x="10" y="150.5576">spec_floats</text><line style="stroke:#181818;stroke-width:1.5;" x1="40" x2="40" y1="177.0078" y2="177.0078"/><rect fill="none" height="26.2969" style="stroke:#181818;stroke-width:0.5;" width="31" x="40" y="163.8594"/><text fill="#000000" font-family="sans-serif" font-size="14" lengthAdjust="spacing" textLength="21" x="45" y="181.8545">```</text><line style="stroke:#181818;stroke-width:1.5;" x1="71" x2="91" y1="177.0078" y2="177.0078"/><rect fill="#F1F1F1" height="26.2969" rx="5" ry="5" style="stroke:#181818;stroke-width:1.5;" width="66.2393" x="91" y="163.8594"/><text fill="#000000" font-family="sans-serif" font-size="14" lengthAdjust="spacing" textLength="56.2393" x="96" y="181.8545">FloatSig</text><line style="stroke:#181818;stroke-width:1.5;" x1="157.2393" x2="177.2393" y1="177.0078" y2="177.0078"/><line style="stroke:#181818;stroke-width:1.5;" x1="177.2393" x2="304.5762" y1="177.0078" y2="177.0078"/><path d="M226.174,177.0078 L226.174,174.0078 L232.174,177.0078 L226.174,180.0078 L226.174,177.0078" fill="#181818"/><path d="M177.2393,177.0078 C186.2393,177.0078 189.2393,179.582 189.2393,188.582 C189.2393,197.582 192.2393,200.1563 201.2393,200.1563" fill="none" style="stroke:#181818;stroke-width:1.5;"/><path d="M280.5762,200.1563 C289.5762,200.1563 292.5762,197.582 292.5762,188.582 C292.5762,179.582 295.5762,177.0078 304.5762,177.0078" fill="none" style="stroke:#181818;stroke-width:1.5;"/><rect fill="#F1F1F1" height="26.2969" rx="5" ry="5" style="stroke:#181818;stroke-width:1.5;" width="79.3369" x="201.2393" y="187.0078"/><text fill="#000000" font-family="sans-serif" font-size="14" lengthAdjust="spacing" textLength="69.3369" x="206.2393" y="205.0029">FloatMeta</text><line style="stroke:#181818;stroke-width:1.5;" x1="304.5762" x2="324.5762" y1="177.0078" y2="177.0078"/><rect fill="#F1F1F1" height="26.2969" rx="5" ry="5" style="stroke:#181818;stroke-width:1.5;" width="65.6787" x="324.5762" y="163.8594"/><text fill="#000000" font-family="sans-serif" font-size="14" lengthAdjust="spacing" textLength="55.6787" x="329.5762" y="181.8545">Content</text><line style="stroke:#181818;stroke-width:1.5;" x1="390.2549" x2="410.2549" y1="177.0078" y2="177.0078"/><rect fill="none" height="26.2969" style="stroke:#181818;stroke-width:0.5;" width="31" x="410.2549" y="163.8594"/><text fill="#000000" font-family="sans-serif" font-size="14" lengthAdjust="spacing" textLength="21" x="415.2549" y="181.8545">```</text><ellipse cx="14" cy="177.0078" fill="none" rx="4" ry="4" style="stroke:#181818;stroke-width:2;"/><ellipse cx="471.2549" cy="177.0078" fill="#181818" rx="4" ry="4" style="stroke:#181818;stroke-width:1;"/><line style="stroke:#181818;stroke-width:1.5;" x1="18" x2="40" y1="177.0078" y2="177.0078"/><line style="stroke:#181818;stroke-width:1.5;" x1="441.2549" x2="467.2549" y1="177.0078" y2="177.0078"/><path d="M452.2549,177.0078 L452.2549,174.0078 L458.2549,177.0078 L452.2549,180.0078 L452.2549,177.0078" fill="#181818"/><text fill="#000000" font-family="sans-serif" font-size="14" font-weight="bold" lengthAdjust="spacing" textLength="65.0234" x="10" y="241.2998">FloatSig</text><line style="stroke:#181818;stroke-width:1.5;" x1="40" x2="40" y1="267.75" y2="267.75"/><rect fill="#F1F1F1" height="26.2969" rx="5" ry="5" style="stroke:#181818;stroke-width:1.5;" width="78.9131" x="40" y="254.6016"/><text fill="#000000" font-family="sans-serif" font-size="14" lengthAdjust="spacing" textLength="68.9131" x="45" y="272.5967">FloatType</text><line style="stroke:#181818;stroke-width:1.5;" x1="118.9131" x2="138.9131" y1="267.75" y2="267.75"/><line style="stroke:#181818;stroke-width:1.5;" x1="138.9131" x2="300.4541" y1="267.75" y2="267.75"/><path d="M201.5295,267.75 L201.5295,264.75 L207.5295,267.75 L201.5295,270.75 L201.5295,267.75" fill="#181818"/><path d="M138.9131,267.75 C147.9131,267.75 150.9131,270.3242 150.9131,279.3242 C150.9131,288.3242 153.9131,290.8984 162.9131,290.8984" fill="none" style="stroke:#181818;stroke-width:1.5;"/><path d="M276.4541,290.8984 C285.4541,290.8984 288.4541,288.3242 288.4541,279.3242 C288.4541,270.3242 291.4541,267.75 300.4541,267.75" fill="none" style="stroke:#181818;stroke-width:1.5;"/><line style="stroke:#181818;stroke-width:1.5;" x1="162.9131" x2="162.9131" y1="290.8984" y2="290.8984"/><rect fill="none" height="26.2969" style="stroke:#181818;stroke-width:0.5;" width="14.4502" x="162.9131" y="277.75"/><text fill="#000000" font-family="sans-serif" font-size="14" lengthAdjust="spacing" textLength="4.4502" x="167.9131" y="295.7451">.</text><line style="stroke:#181818;stroke-width:1.5;" x1="177.3633" x2="197.3633" y1="290.8984" y2="290.8984"/><rect fill="#F1F1F1" height="26.2969" rx="5" ry="5" style="stroke:#181818;stroke-width:1.5;" width="79.0908" x="197.3633" y="277.75"/><text fill="#000000" font-family="sans-serif" font-size="14" lengthAdjust="spacing" textLength="69.0908" x="202.3633" y="295.7451">Language</text><line style="stroke:#181818;stroke-width:1.5;" x1="300.4541" x2="320.4541" y1="267.75" y2="267.75"/><rect fill="none" height="26.2969" style="stroke:#181818;stroke-width:0.5;" width="14.7168" x="320.4541" y="254.6016"/><text fill="#000000" font-family="sans-serif" font-size="14" lengthAdjust="spacing" textLength="4.7168" x="325.4541" y="272.5967">:</text><line style="stroke:#181818;stroke-width:1.5;" x1="335.1709" x2="355.1709" y1="267.75" y2="267.75"/><rect fill="#F1F1F1" height="26.2969" rx="5" ry="5" style="stroke:#181818;stroke-width:1.5;" width="47.7686" x="355.1709" y="254.6016"/><text fill="#000000" font-family="sans-serif" font-size="14" lengthAdjust="spacing" textLength="37.7686" x="360.1709" y="272.5967">Label</text><ellipse cx="14" cy="267.75" fill="none" rx="4" ry="4" style="stroke:#181818;stroke-width:2;"/><ellipse cx="432.9395" cy="267.75" fill="#181818" rx="4" ry="4" style="stroke:#181818;stroke-width:1;"/><line style="stroke:#181818;stroke-width:1.5;" x1="18" x2="40" y1="267.75" y2="267.75"/><line style="stroke:#181818;stroke-width:1.5;" x1="402.9395" x2="428.9395" y1="267.75" y2="267.75"/><path d="M413.9395,267.75 L413.9395,264.75 L419.9395,267.75 L413.9395,270.75 L413.9395,267.75" fill="#181818"/><text fill="#000000" font-family="sans-serif" font-size="14" font-weight="bold" lengthAdjust="spacing" textLength="79.6865" x="10" y="332.042">FloatMeta</text><line style="stroke:#181818;stroke-width:1.5;" x1="40" x2="40" y1="358.4922" y2="358.4922"/><rect fill="none" height="26.2969" style="stroke:#181818;stroke-width:0.5;" width="18.9072" x="40" y="345.3438"/><text fill="#000000" font-family="sans-serif" font-size="14" lengthAdjust="spacing" textLength="8.9072" x="45" y="363.3389">{</text><line style="stroke:#181818;stroke-width:1.5;" x1="58.9072" x2="78.9072" y1="358.4922" y2="358.4922"/><line style="stroke:#181818;stroke-width:1.5;" x1="78.9072" x2="355.6963" y1="358.4922" y2="358.4922"/><path d="M187.6229,358.4922 L187.6229,355.4922 L193.6229,358.4922 L187.6229,361.4922 L187.6229,358.4922" fill="#181818"/><path d="M78.9072,358.4922 C87.9072,358.4922 90.9072,367.0664 90.9072,376.0664 C90.9072,385.0664 93.9072,393.6406 102.9072,393.6406" fill="none" style="stroke:#181818;stroke-width:1.5;"/><path d="M331.6963,393.6406 C340.6963,393.6406 343.6963,385.0664 343.6963,376.0664 C343.6963,367.0664 346.6963,358.4922 355.6963,358.4922" fill="none" style="stroke:#181818;stroke-width:1.5;"/><path d="M110.9072,385.6406 C110.9072,391.6406 112.9072,393.6406 118.9072,393.6406" fill="none" style="stroke:#181818;stroke-width:1.5;"/><line style="stroke:#181818;stroke-width:1.5;" x1="110.9072" x2="110.9072" y1="381.4922" y2="385.6406"/><path d="M110.9072,381.4922 C110.9072,375.4922 112.9072,373.4922 118.9072,373.4922" fill="none" style="stroke:#181818;stroke-width:1.5;"/><line style="stroke:#181818;stroke-width:1.5;" x1="117.9072" x2="316.6963" y1="373.4922" y2="373.4922"/><path d="M235.1807,373.4922 L235.1807,370.4922 L229.1807,373.4922 L235.1807,376.4922 L235.1807,373.4922" fill="#181818"/><path d="M323.6963,385.6406 C323.6963,391.6406 321.6963,393.6406 315.6963,393.6406" fill="none" style="stroke:#181818;stroke-width:1.5;"/><line style="stroke:#181818;stroke-width:1.5;" x1="323.6963" x2="323.6963" y1="381.4922" y2="385.6406"/><path d="M315.6963,373.4922 C321.6963,373.4922 323.6963,375.4922 323.6963,381.4922" fill="none" style="stroke:#181818;stroke-width:1.5;"/><line style="stroke:#181818;stroke-width:1.5;" x1="102.9072" x2="117.9072" y1="393.6406" y2="393.6406"/><line style="stroke:#181818;stroke-width:1.5;" x1="316.6963" x2="331.6963" y1="393.6406" y2="393.6406"/><line style="stroke:#181818;stroke-width:1.5;" x1="117.9072" x2="117.9072" y1="393.6406" y2="393.6406"/><rect fill="#F1F1F1" height="26.2969" rx="5" ry="5" style="stroke:#181818;stroke-width:1.5;" width="36.0791" x="117.9072" y="380.4922"/><text fill="#000000" font-family="sans-serif" font-size="14" lengthAdjust="spacing" textLength="26.0791" x="122.9072" y="398.4873">Key</text><line style="stroke:#181818;stroke-width:1.5;" x1="153.9863" x2="173.9863" y1="393.6406" y2="393.6406"/><rect fill="none" height="26.2969" style="stroke:#181818;stroke-width:0.5;" width="21.7305" x="173.9863" y="380.4922"/><text fill="#000000" font-family="sans-serif" font-size="14" lengthAdjust="spacing" textLength="11.7305" x="178.9863" y="398.4873">=</text><line style="stroke:#181818;stroke-width:1.5;" x1="195.7168" x2="215.7168" y1="393.6406" y2="393.6406"/><rect fill="#F1F1F1" height="26.2969" rx="5" ry="5" style="stroke:#181818;stroke-width:1.5;" width="100.9795" x="215.7168" y="380.4922"/><text fill="#000000" font-family="sans-serif" font-size="14" lengthAdjust="spacing" textLength="90.9795" x="220.7168" y="398.4873">QuotedValue</text><line style="stroke:#181818;stroke-width:1.5;" x1="355.6963" x2="375.6963" y1="358.4922" y2="358.4922"/><rect fill="none" height="26.2969" style="stroke:#181818;stroke-width:0.5;" width="18.9072" x="375.6963" y="345.3438"/><text fill="#000000" font-family="sans-serif" font-size="14" lengthAdjust="spacing" textLength="8.9072" x="380.6963" y="363.3389">}</text><ellipse cx="14" cy="358.4922" fill="none" rx="4" ry="4" style="stroke:#181818;stroke-width:2;"/><ellipse cx="424.6035" cy="358.4922" fill="#181818" rx="4" ry="4" style="stroke:#181818;stroke-width:1;"/><line style="stroke:#181818;stroke-width:1.5;" x1="18" x2="40" y1="358.4922" y2="358.4922"/><line style="stroke:#181818;stroke-width:1.5;" x1="394.6035" x2="420.6035" y1="358.4922" y2="358.4922"/><path d="M405.6035,358.4922 L405.6035,355.4922 L411.6035,358.4922 L405.6035,361.4922 L405.6035,358.4922" fill="#181818"/><!--SRC=[JL7RRXen47ttLnpnKX9j421QDLj5YX9A9GAviU6bge9tTo1klJPQZqbHb7_lx2AKlbYZcNCPdxaCh6kctAqL6xQ4nPQAiNzrAIRMQpPkWxlyDnKSq0qoUrutxN2YkgUOa2keHE5BGcvzyIVWrV0BUB-brEgSB78gV4LmiSgffZ91eRTil1CQMQh8YUvfAvQzK4j45GE3_XfvZGDBkn83-odWm_-vGRPCzTzIk41djLfraiFk2xD9yFDGpuarVYMuzex5D3a0lobrH0gtBJCHRbYTdiZCjDj4lQ66sKdRXdpgo6ernV9D1c-ueRs0BgH-Y9wfN6eR2U_IUszyBicLRSpgtch7J_CPTbG7YGA3th0__DmRzBkPC6xz3lqH1gDqs4z7vxXwpD3C9QGVzpC47-k2K4eyjSbZa-M9ckgTncDqR2fASRSbDntV71luxdQczgu9MqsNym_0bz7PbM4ig9PLi9ohCQrrj2mCkQcSFiLJDZdxgeuvf22dhhterljKZchjFm00]--></g></svg>