<svg xmlns="http://www.w3.org/2000/svg" xmlns:xlink="http://www.w3.org/1999/xlink" contentStyleType="text/css" data-diagram-type="EBNF" height="552px" preserveAspectRatio="none" style="width:557px;height:552px;background:#FFFFFF;" version="1.1" viewBox="0 0 557 552" width="557px" zoomAndPan="magnify"><title>SpecCompiler: SpecObject (spec_objects)</title><defs/><g><g class="title" data-source-line="1"><text fill="#000000" font-family="sans-serif" font-size="14" font-weight="bold" lengthAdjust="spacing" textLength="299.6943" x="127.5027" y="32.9951">SpecCompiler: SpecObject (spec_objects)</text></g><path d="M10,52.2969 L10,77.4297 L434.8125,77.4297 L434.8125,62.2969 L424.8125,52.2969 L10,52.2969" fill="#FEFFDD" style="stroke:#181818;stroke-width:0.5;"/><path d="M424.8125,52.2969 L424.8125,62.2969 L434.8125,62.2969 L424.8125,52.2969" fill="#FEFFDD" style="stroke:#181818;stroke-width:0.5;"/><text fill="#000000" font-family="sans-serif" font-size="13" lengthAdjust="spacing" textLength="395.5479" x="20.1323" y="69.3638">Any header level 2-6 creates a traceable specification object</text><path d="M10,97.4297 L10,122.5625 L545.6997,122.5625 L545.6997,107.4297 L535.6997,97.4297 L10,97.4297" fill="#FEFFDD" style="stroke:#181818;stroke-width:0.5;"/><path d="M535.6997,97.4297 L535.6997,107.4297 L545.6997,107.4297 L535.6997,97.4297" fill="#FEFFDD" style="stroke:#181818;stroke-width:0.5;"/><text fill="#000000" font-family="sans-serif" font-size="13" lengthAdjust="spacing" textLength="506.4351" x="20.1323" y="114.4966">The object accumulates content until the next header at equal or higher level</text><text fill="#000000" font-family="sans-serif" font-size="14" font-weight="bold" lengthAdjust="spacing" textLength="100.4063" x="10" y="150.5576">spec_objects</text><line style="stroke:#181818;stroke-width:1.5;" x1="40" x2="40" y1="177.0078" y2="177.0078"/><rect fill="none" height="26.2969" style="stroke:#181818;stroke-width:0.5;" width="117.1943" x="40" y="163.8594"/><text fill="#000000" font-family="sans-serif" font-size="14" lengthAdjust="spacing" textLength="107.1943" x="45" y="181.8545">##...######</text><line style="stroke:#181818;stroke-width:1.5;" x1="157.1943" x2="177.1943" y1="177.0078" y2="177.0078"/><rect fill="#F1F1F1" height="26.2969" rx="5" ry="5" style="stroke:#181818;stroke-width:1.5;" width="82.6387" x="177.1943" y="163.8594"/><text fill="#000000" font-family="sans-serif" font-size="14" lengthAdjust="spacing" textLength="72.6387" x="182.1943" y="181.8545">HeaderSig</text><line style="stroke:#181818;stroke-width:1.5;" x1="259.833" x2="279.833" y1="177.0078" y2="177.0078"/><rect fill="#F1F1F1" height="26.2969" rx="5" ry="5" style="stroke:#181818;stroke-width:1.5;" width="90.9375" x="279.833" y="163.8594"/><text fill="#000000" font-family="sans-serif" font-size="14" lengthAdjust="spacing" textLength="80.9375" x="284.833" y="181.8545">ObjectBody</text><ellipse cx="14" cy="177.0078" fill="none" rx="4" ry="4" style="stroke:#181818;stroke-width:2;"/><ellipse cx="400.7705" cy="177.0078" fill="#181818" rx="4" ry="4" style="stroke:#181818;stroke-width:1;"/><line style="stroke:#181818;stroke-width:1.5;" x1="18" x2="40" y1="177.0078" y2="177.0078"/><line style="stroke:#181818;stroke-width:1.5;" x1="370.7705" x2="396.7705" y1="177.0078" y2="177.0078"/><path d="M381.7705,177.0078 L381.7705,174.0078 L387.7705,177.0078 L381.7705,180.0078 L381.7705,177.0078" fill="#181818"/><text fill="#000000" font-family="sans-serif" font-size="14" font-weight="bold" lengthAdjust="spacing" textLength="81.9834" x="10" y="218.1514">HeaderSig</text><line style="stroke:#181818;stroke-width:1.5;" x1="40" x2="40" y1="244.6016" y2="244.6016"/><line style="stroke:#181818;stroke-width:1.5;" x1="40" x2="190.3232" y1="244.6016" y2="244.6016"/><path d="M98.1293,244.6016 L98.1293,241.6016 L104.1293,244.6016 L98.1293,247.6016 L98.1293,244.6016" fill="#181818"/><path d="M40,244.6016 C49,244.6016 52,247.1758 52,256.1758 C52,265.1758 55,267.75 64,267.75" fill="none" style="stroke:#181818;stroke-width:1.5;"/><path d="M166.3232,267.75 C175.3232,267.75 178.3232,265.1758 178.3232,256.1758 C178.3232,247.1758 181.3232,244.6016 190.3232,244.6016" fill="none" style="stroke:#181818;stroke-width:1.5;"/><line style="stroke:#181818;stroke-width:1.5;" x1="64" x2="64" y1="267.75" y2="267.75"/><rect fill="#F1F1F1" height="26.2969" rx="5" ry="5" style="stroke:#181818;stroke-width:1.5;" width="67.6064" x="64" y="254.6016"/><text fill="#000000" font-family="sans-serif" font-size="14" lengthAdjust="spacing" textLength="57.6064" x="69" y="272.5967">TypeRef</text><line style="stroke:#181818;stroke-width:1.5;" x1="131.6064" x2="151.6064" y1="267.75" y2="267.75"/><rect fill="none" height="26.2969" style="stroke:#181818;stroke-width:0.5;" width="14.7168" x="151.6064" y="254.6016"/><text fill="#000000" font-family="sans-serif" font-size="14" lengthAdjust="spacing" textLength="4.7168" x="156.6064" y="272.5967">:</text><line style="stroke:#181818;stroke-width:1.5;" x1="190.3232" x2="210.3232" y1="244.6016" y2="244.6016"/><rect fill="#F1F1F1" height="26.2969" rx="5" ry="5" style="stroke:#181818;stroke-width:1.5;" width="40.9395" x="210.3232" y="231.4531"/><text fill="#000000" font-family="sans-serif" font-size="14" lengthAdjust="spacing" textLength="30.9395" x="215.3232" y="249.4482">Text</text><line style="stroke:#181818;stroke-width:1.5;" x1="251.2627" x2="271.2627" y1="244.6016" y2="244.6016"/><line style="stroke:#181818;stroke-width:1.5;" x1="271.2627" x2="396.6143" y1="244.6016" y2="244.6016"/><path d="M319.4033,244.6016 L319.4033,241.6016 L325.4033,244.6016 L319.4033,247.6016 L319.4033,244.6016" fill="#181818"/><path d="M271.2627,244.6016 C280.2627,244.6016 283.2627,247.1758 283.2627,256.1758 C283.2627,265.1758 286.2627,267.75 295.2627,267.75" fill="none" style="stroke:#181818;stroke-width:1.5;"/><path d="M372.6143,267.75 C381.6143,267.75 384.6143,265.1758 384.6143,256.1758 C384.6143,247.1758 387.6143,244.6016 396.6143,244.6016" fill="none" style="stroke:#181818;stroke-width:1.5;"/><line style="stroke:#181818;stroke-width:1.5;" x1="295.2627" x2="295.2627" y1="267.75" y2="267.75"/><rect fill="none" height="26.2969" style="stroke:#181818;stroke-width:0.5;" width="24" x="295.2627" y="254.6016"/><text fill="#000000" font-family="sans-serif" font-size="14" lengthAdjust="spacing" textLength="14" x="300.2627" y="272.5967">@</text><line style="stroke:#181818;stroke-width:1.5;" x1="319.2627" x2="339.2627" y1="267.75" y2="267.75"/><rect fill="#F1F1F1" height="26.2969" rx="5" ry="5" style="stroke:#181818;stroke-width:1.5;" width="33.3516" x="339.2627" y="254.6016"/><text fill="#000000" font-family="sans-serif" font-size="14" lengthAdjust="spacing" textLength="23.3516" x="344.2627" y="272.5967">PID</text><ellipse cx="14" cy="244.6016" fill="none" rx="4" ry="4" style="stroke:#181818;stroke-width:2;"/><ellipse cx="426.6143" cy="244.6016" fill="#181818" rx="4" ry="4" style="stroke:#181818;stroke-width:1;"/><line style="stroke:#181818;stroke-width:1.5;" x1="18" x2="40" y1="244.6016" y2="244.6016"/><line style="stroke:#181818;stroke-width:1.5;" x1="396.6143" x2="422.6143" y1="244.6016" y2="244.6016"/><path d="M407.6143,244.6016 L407.6143,241.6016 L413.6143,244.6016 L407.6143,247.6016 L407.6143,244.6016" fill="#181818"/><text fill="#000000" font-family="sans-serif" font-size="14" font-weight="bold" lengthAdjust="spacing" textLength="90.6445" x="10" y="308.8936">ObjectBody</text><line style="stroke:#181818;stroke-width:1.5;" x1="40" x2="329.0908" y1="332.1953" y2="332.1953"/><path d="M153.6363,332.1953 L153.6363,329.1953 L159.6363,332.1953 L153.6363,335.1953 L153.6363,332.1953" fill="#181818"/><path d="M40,332.1953 C49,332.1953 52,340.7695 52,349.7695 C52,358.7695 55,367.3438 64,367.3438" fill="none" style="stroke:#181818;stroke-width:1.5;"/><path d="M305.0908,367.3438 C314.0908,367.3438 317.0908,358.7695 317.0908,349.7695 C317.0908,340.7695 320.0908,332.1953 329.0908,332.1953" fill="none" style="stroke:#181818;stroke-width:1.5;"/><path d="M72,359.3438 C72,365.3438 74,367.3438 80,367.3438" fill="none" style="stroke:#181818;stroke-width:1.5;"/><line style="stroke:#181818;stroke-width:1.5;" x1="72" x2="72" y1="355.1953" y2="359.3438"/><path d="M72,355.1953 C72,349.1953 74,347.1953 80,347.1953" fill="none" style="stroke:#181818;stroke-width:1.5;"/><line style="stroke:#181818;stroke-width:1.5;" x1="79" x2="290.0908" y1="347.1953" y2="347.1953"/><path d="M203.6545,347.1953 L203.6545,344.1953 L197.6545,347.1953 L203.6545,350.1953 L203.6545,347.1953" fill="#181818"/><path d="M297.0908,359.3438 C297.0908,365.3438 295.0908,367.3438 289.0908,367.3438" fill="none" style="stroke:#181818;stroke-width:1.5;"/><line style="stroke:#181818;stroke-width:1.5;" x1="297.0908" x2="297.0908" y1="355.1953" y2="359.3438"/><path d="M289.0908,347.1953 C295.0908,347.1953 297.0908,349.1953 297.0908,355.1953" fill="none" style="stroke:#181818;stroke-width:1.5;"/><line style="stroke:#181818;stroke-width:1.5;" x1="64" x2="79" y1="367.3438" y2="367.3438"/><line style="stroke:#181818;stroke-width:1.5;" x1="290.0908" x2="305.0908" y1="367.3438" y2="367.3438"/><rect fill="#F1F1F1" height="26.2969" rx="5" ry="5" style="stroke:#181818;stroke-width:1.5;" width="163.0908" x="103" y="354.1953"/><text fill="#000000" font-family="sans-serif" font-size="14" lengthAdjust="spacing" textLength="153.0908" x="108" y="372.1904">spec_attribute_values</text><line style="stroke:#181818;stroke-width:1.5;" x1="79" x2="103" y1="367.3438" y2="367.3438"/><line style="stroke:#181818;stroke-width:1.5;" x1="266.0908" x2="290.0908" y1="367.3438" y2="367.3438"/><rect fill="#F1F1F1" height="26.2969" rx="5" ry="5" style="stroke:#181818;stroke-width:1.5;" width="88.2373" x="103" y="390.4922"/><text fill="#000000" font-family="sans-serif" font-size="14" lengthAdjust="spacing" textLength="78.2373" x="108" y="408.4873">spec_floats</text><path d="M91,391.6406 C91,400.6406 94,403.6406 103,403.6406" fill="none" style="stroke:#181818;stroke-width:1.5;"/><line style="stroke:#181818;stroke-width:1.5;" x1="191.2373" x2="266.0908" y1="403.6406" y2="403.6406"/><path d="M226.6641,403.6406 L226.6641,400.6406 L232.6641,403.6406 L226.6641,406.6406 L226.6641,403.6406" fill="#181818"/><path d="M278.0908,391.6406 C278.0908,400.6406 275.0908,403.6406 266.0908,403.6406" fill="none" style="stroke:#181818;stroke-width:1.5;"/><rect fill="#F1F1F1" height="26.2969" rx="5" ry="5" style="stroke:#181818;stroke-width:1.5;" width="89.0234" x="103" y="426.7891"/><text fill="#000000" font-family="sans-serif" font-size="14" lengthAdjust="spacing" textLength="79.0234" x="108" y="444.7842">spec_views</text><path d="M91,427.9375 C91,436.9375 94,439.9375 103,439.9375" fill="none" style="stroke:#181818;stroke-width:1.5;"/><line style="stroke:#181818;stroke-width:1.5;" x1="192.0234" x2="266.0908" y1="439.9375" y2="439.9375"/><path d="M227.0571,439.9375 L227.0571,436.9375 L233.0571,439.9375 L227.0571,442.9375 L227.0571,439.9375" fill="#181818"/><path d="M278.0908,427.9375 C278.0908,436.9375 275.0908,439.9375 266.0908,439.9375" fill="none" style="stroke:#181818;stroke-width:1.5;"/><rect fill="#F1F1F1" height="26.2969" rx="5" ry="5" style="stroke:#181818;stroke-width:1.5;" width="110.4404" x="103" y="463.0859"/><text fill="#000000" font-family="sans-serif" font-size="14" lengthAdjust="spacing" textLength="100.4404" x="108" y="481.0811">spec_relations</text><path d="M91,464.2344 C91,473.2344 94,476.2344 103,476.2344" fill="none" style="stroke:#181818;stroke-width:1.5;"/><line style="stroke:#181818;stroke-width:1.5;" x1="213.4404" x2="266.0908" y1="476.2344" y2="476.2344"/><path d="M237.7656,476.2344 L237.7656,473.2344 L243.7656,476.2344 L237.7656,479.2344 L237.7656,476.2344" fill="#181818"/><path d="M278.0908,464.2344 C278.0908,473.2344 275.0908,476.2344 266.0908,476.2344" fill="none" style="stroke:#181818;stroke-width:1.5;"/><rect fill="#F1F1F1" height="26.2969" rx="5" ry="5" style="stroke:#181818;stroke-width:1.5;" width="86.5352" x="103" y="499.3828"/><text fill="#000000" font-family="sans-serif" font-size="14" lengthAdjust="spacing" textLength="76.5352" x="108" y="517.3779">ProseBlock</text><line style="stroke:#181818;stroke-width:1.5;" x1="189.5352" x2="266.0908" y1="512.5313" y2="512.5313"/><path d="M225.813,512.5313 L225.813,509.5313 L231.813,512.5313 L225.813,515.5313 L225.813,512.5313" fill="#181818"/><path d="M91,500.5313 C91,509.5313 94,512.5313 103,512.5313" fill="none" style="stroke:#181818;stroke-width:1.5;"/><line style="stroke:#181818;stroke-width:1.5;" x1="91" x2="91" y1="379.3438" y2="500.5313"/><path d="M79,367.3438 C88,367.3438 91,370.3438 91,379.3438" fill="none" style="stroke:#181818;stroke-width:1.5;"/><path d="M278.0908,500.5313 C278.0908,509.5313 275.0908,512.5313 266.0908,512.5313" fill="none" style="stroke:#181818;stroke-width:1.5;"/><line style="stroke:#181818;stroke-width:1.5;" x1="278.0908" x2="278.0908" y1="379.3438" y2="500.5313"/><path d="M278.0908,379.3438 C278.0908,370.3438 281.0908,367.3438 290.0908,367.3438" fill="none" style="stroke:#181818;stroke-width:1.5;"/><ellipse cx="14" cy="332.1953" fill="none" rx="4" ry="4" style="stroke:#181818;stroke-width:2;"/><ellipse cx="359.0908" cy="332.1953" fill="#181818" rx="4" ry="4" style="stroke:#181818;stroke-width:1;"/><line style="stroke:#181818;stroke-width:1.5;" x1="18" x2="40" y1="332.1953" y2="332.1953"/><line style="stroke:#181818;stroke-width:1.5;" x1="329.0908" x2="355.0908" y1="332.1953" y2="332.1953"/><path d="M340.0908,332.1953 L340.0908,329.1953 L346.0908,332.1953 L340.0908,335.1953 L340.0908,332.1953" fill="#181818"/><!--SRC=[JP5RRnen48NV_IkEu8L4omeGZTgjAb5ARnGI19kyL14oPW2tngRUyQQewN-lTn6aVfevzldcua71qZEjx4QmPaDO74YDt9FDwkXkzOCKerN4UEdgfBWIhMkyjqViIAx9mr191hts3PGdoLH0WhrK95UHLpdrHYl9sbcS4BYk6VcEpe9KAko3gTtAMIRB29Qr0ST7bdxpkPfaqAyW3Pp7JcztbmOYK_pV9jwXqMocQTgiJoF1bvgmqDi4fxc6RdryAyH5ZvRlo8y7cjCcGIDhu3517eidKMyC8cBsTOJ7Q7dnHy-VUiYbPFPw5PYMfJGX3l9yqZV6IRvafQQdI-B9r7kfX9bt1GsDKp_nDrOOa5tNto9cHbg-dqvGaY-g9NRJNgVtAkrsMdaWtBeIdJww_QpNoVflC9pdgExZYZ_F9YXSy8gmriMfkmYu4cDPIioh1Uyfmzs1x7ZqxIpWeosrTtOVFq6C7wOl3sxwxQ5cBCZ7Ll0m5IFQo60uEfHRQxlDS9z_QhyM4sctGMuZcwpuu2BN7pFOOCm_]--></g></svg>