<svg xmlns="http://www.w3.org/2000/svg" xmlns:xlink="http://www.w3.org/1999/xlink" contentStyleType="text/css" data-diagram-type="EBNF" height="543px" preserveAspectRatio="none" style="width:484px;height:543px;background:#FFFFFF;" version="1.1" viewBox="0 0 484 543" width="484px" zoomAndPan="magnify"><title>SpecCompiler: Content Accumulation (ProseBlock)</title><defs/><g><g class="title" data-source-line="1"><text fill="#000000" font-family="sans-serif" font-size="14" font-weight="bold" lengthAdjust="spacing" textLength="372.3467" x="54.4426" y="32.9951">SpecCompiler: Content Accumulation (ProseBlock)</text></g><path d="M10,52.2969 L10,77.4297 L447.1333,77.4297 L447.1333,62.2969 L437.1333,52.2969 L10,52.2969" fill="#FEFFDD" style="stroke:#181818;stroke-width:0.5;"/><path d="M437.1333,52.2969 L437.1333,62.2969 L447.1333,62.2969 L437.1333,52.2969" fill="#FEFFDD" style="stroke:#181818;stroke-width:0.5;"/><text fill="#000000" font-family="sans-serif" font-size="13" lengthAdjust="spacing" textLength="407.8687" x="20.1323" y="69.3638">Any Markdown block that does not match a SpecCompiler pattern</text><path d="M10,97.4297 L10,122.5625 L472.2319,122.5625 L472.2319,107.4297 L462.2319,97.4297 L10,97.4297" fill="#FEFFDD" style="stroke:#181818;stroke-width:0.5;"/><path d="M462.2319,97.4297 L462.2319,107.4297 L472.2319,107.4297 L462.2319,97.4297" fill="#FEFFDD" style="stroke:#181818;stroke-width:0.5;"/><text fill="#000000" font-family="sans-serif" font-size="13" lengthAdjust="spacing" textLength="432.9673" x="20.1323" y="114.4966">accumulates as content to the current Specification or SpecObject</text><text fill="#000000" font-family="sans-serif" font-size="14" font-weight="bold" lengthAdjust="spacing" textLength="87.3086" x="10" y="150.5576">ProseBlock</text><rect fill="#F1F1F1" height="26.2969" rx="5" ry="5" style="stroke:#181818;stroke-width:1.5;" width="82.3379" x="64" y="163.8594"/><text fill="#000000" font-family="sans-serif" font-size="14" lengthAdjust="spacing" textLength="72.3379" x="69" y="181.8545">Paragraph</text><line style="stroke:#181818;stroke-width:1.5;" x1="40" x2="64" y1="177.0078" y2="177.0078"/><line style="stroke:#181818;stroke-width:1.5;" x1="146.3379" x2="200.5869" y1="177.0078" y2="177.0078"/><rect fill="#F1F1F1" height="26.2969" rx="5" ry="5" style="stroke:#181818;stroke-width:1.5;" width="74.832" x="64" y="200.1563"/><text fill="#000000" font-family="sans-serif" font-size="14" lengthAdjust="spacing" textLength="64.832" x="69" y="218.1514">BulletList</text><path d="M52,201.3047 C52,210.3047 55,213.3047 64,213.3047" fill="none" style="stroke:#181818;stroke-width:1.5;"/><line style="stroke:#181818;stroke-width:1.5;" x1="138.832" x2="176.5869" y1="213.3047" y2="213.3047"/><path d="M155.7095,213.3047 L155.7095,210.3047 L161.7095,213.3047 L155.7095,216.3047 L155.7095,213.3047" fill="#181818"/><path d="M188.5869,201.3047 C188.5869,210.3047 185.5869,213.3047 176.5869,213.3047" fill="none" style="stroke:#181818;stroke-width:1.5;"/><rect fill="#F1F1F1" height="26.2969" rx="5" ry="5" style="stroke:#181818;stroke-width:1.5;" width="92.0039" x="64" y="236.4531"/><text fill="#000000" font-family="sans-serif" font-size="14" lengthAdjust="spacing" textLength="82.0039" x="69" y="254.4482">OrderedList</text><path d="M52,237.6016 C52,246.6016 55,249.6016 64,249.6016" fill="none" style="stroke:#181818;stroke-width:1.5;"/><line style="stroke:#181818;stroke-width:1.5;" x1="156.0039" x2="176.5869" y1="249.6016" y2="249.6016"/><path d="M188.5869,237.6016 C188.5869,246.6016 185.5869,249.6016 176.5869,249.6016" fill="none" style="stroke:#181818;stroke-width:1.5;"/><rect fill="#F1F1F1" height="26.2969" rx="5" ry="5" style="stroke:#181818;stroke-width:1.5;" width="102.2646" x="64" y="272.75"/><text fill="#000000" font-family="sans-serif" font-size="14" lengthAdjust="spacing" textLength="92.2646" x="69" y="290.7451">DefinitionList</text><path d="M52,273.8984 C52,282.8984 55,285.8984 64,285.8984" fill="none" style="stroke:#181818;stroke-width:1.5;"/><line style="stroke:#181818;stroke-width:1.5;" x1="166.2646" x2="176.5869" y1="285.8984" y2="285.8984"/><path d="M188.5869,273.8984 C188.5869,282.8984 185.5869,285.8984 176.5869,285.8984" fill="none" style="stroke:#181818;stroke-width:1.5;"/><rect fill="#F1F1F1" height="26.2969" rx="5" ry="5" style="stroke:#181818;stroke-width:1.5;" width="90.4248" x="64" y="309.0469"/><text fill="#000000" font-family="sans-serif" font-size="14" lengthAdjust="spacing" textLength="80.4248" x="69" y="327.042">BlockQuote</text><path d="M52,310.1953 C52,319.1953 55,322.1953 64,322.1953" fill="none" style="stroke:#181818;stroke-width:1.5;"/><line style="stroke:#181818;stroke-width:1.5;" x1="154.4248" x2="176.5869" y1="322.1953" y2="322.1953"/><path d="M188.5869,310.1953 C188.5869,319.1953 185.5869,322.1953 176.5869,322.1953" fill="none" style="stroke:#181818;stroke-width:1.5;"/><rect fill="#F1F1F1" height="26.2969" rx="5" ry="5" style="stroke:#181818;stroke-width:1.5;" width="48.5205" x="64" y="345.3438"/><text fill="#000000" font-family="sans-serif" font-size="14" lengthAdjust="spacing" textLength="38.5205" x="69" y="363.3389">Table</text><path d="M52,346.4922 C52,355.4922 55,358.4922 64,358.4922" fill="none" style="stroke:#181818;stroke-width:1.5;"/><line style="stroke:#181818;stroke-width:1.5;" x1="112.5205" x2="176.5869" y1="358.4922" y2="358.4922"/><path d="M142.5537,358.4922 L142.5537,355.4922 L148.5537,358.4922 L142.5537,361.4922 L142.5537,358.4922" fill="#181818"/><path d="M188.5869,346.4922 C188.5869,355.4922 185.5869,358.4922 176.5869,358.4922" fill="none" style="stroke:#181818;stroke-width:1.5;"/><rect fill="#F1F1F1" height="26.2969" rx="5" ry="5" style="stroke:#181818;stroke-width:1.5;" width="83.7051" x="64" y="381.6406"/><text fill="#000000" font-family="sans-serif" font-size="14" lengthAdjust="spacing" textLength="73.7051" x="69" y="399.6357">CodeBlock</text><path d="M52,382.7891 C52,391.7891 55,394.7891 64,394.7891" fill="none" style="stroke:#181818;stroke-width:1.5;"/><line style="stroke:#181818;stroke-width:1.5;" x1="147.7051" x2="176.5869" y1="394.7891" y2="394.7891"/><path d="M160.146,394.7891 L160.146,391.7891 L166.146,394.7891 L160.146,397.7891 L160.146,394.7891" fill="#181818"/><path d="M188.5869,382.7891 C188.5869,391.7891 185.5869,394.7891 176.5869,394.7891" fill="none" style="stroke:#181818;stroke-width:1.5;"/><rect fill="#F1F1F1" height="26.2969" rx="5" ry="5" style="stroke:#181818;stroke-width:1.5;" width="112.5869" x="64" y="417.9375"/><text fill="#000000" font-family="sans-serif" font-size="14" lengthAdjust="spacing" textLength="102.5869" x="69" y="435.9326">HorizontalRule</text><path d="M52,419.0859 C52,428.0859 55,431.0859 64,431.0859" fill="none" style="stroke:#181818;stroke-width:1.5;"/><line style="stroke:#181818;stroke-width:1.5;" x1="176.5869" x2="176.5869" y1="431.0859" y2="431.0859"/><path d="M188.5869,419.0859 C188.5869,428.0859 185.5869,431.0859 176.5869,431.0859" fill="none" style="stroke:#181818;stroke-width:1.5;"/><rect fill="#F1F1F1" height="26.2969" rx="5" ry="5" style="stroke:#181818;stroke-width:1.5;" width="54.0713" x="64" y="454.2344"/><text fill="#000000" font-family="sans-serif" font-size="14" lengthAdjust="spacing" textLength="44.0713" x="69" y="472.2295">Figure</text><path d="M52,455.3828 C52,464.3828 55,467.3828 64,467.3828" fill="none" style="stroke:#181818;stroke-width:1.5;"/><line style="stroke:#181818;stroke-width:1.5;" x1="118.0713" x2="176.5869" y1="467.3828" y2="467.3828"/><path d="M145.3291,467.3828 L145.3291,464.3828 L151.3291,467.3828 L145.3291,470.3828 L145.3291,467.3828" fill="#181818"/><path d="M188.5869,455.3828 C188.5869,464.3828 185.5869,467.3828 176.5869,467.3828" fill="none" style="stroke:#181818;stroke-width:1.5;"/><rect fill="#F1F1F1" height="26.2969" rx="5" ry="5" style="stroke:#181818;stroke-width:1.5;" width="32.9551" x="64" y="490.5313"/><text fill="#000000" font-family="sans-serif" font-size="14" lengthAdjust="spacing" textLength="22.9551" x="69" y="508.5264">Div</text><line style="stroke:#181818;stroke-width:1.5;" x1="96.9551" x2="176.5869" y1="503.6797" y2="503.6797"/><path d="M134.771,503.6797 L134.771,500.6797 L140.771,503.6797 L134.771,506.6797 L134.771,503.6797" fill="#181818"/><path d="M52,491.6797 C52,500.6797 55,503.6797 64,503.6797" fill="none" style="stroke:#181818;stroke-width:1.5;"/><line style="stroke:#181818;stroke-width:1.5;" x1="52" x2="52" y1="189.0078" y2="491.6797"/><path d="M40,177.0078 C49,177.0078 52,180.0078 52,189.0078" fill="none" style="stroke:#181818;stroke-width:1.5;"/><path d="M188.5869,491.6797 C188.5869,500.6797 185.5869,503.6797 176.5869,503.6797" fill="none" style="stroke:#181818;stroke-width:1.5;"/><line style="stroke:#181818;stroke-width:1.5;" x1="188.5869" x2="188.5869" y1="189.0078" y2="491.6797"/><path d="M188.5869,189.0078 C188.5869,180.0078 191.5869,177.0078 200.5869,177.0078" fill="none" style="stroke:#181818;stroke-width:1.5;"/><ellipse cx="14" cy="177.0078" fill="none" rx="4" ry="4" style="stroke:#181818;stroke-width:2;"/><ellipse cx="230.5869" cy="177.0078" fill="#181818" rx="4" ry="4" style="stroke:#181818;stroke-width:1;"/><line style="stroke:#181818;stroke-width:1.5;" x1="18" x2="40" y1="177.0078" y2="177.0078"/><line style="stroke:#181818;stroke-width:1.5;" x1="200.5869" x2="226.5869" y1="177.0078" y2="177.0078"/><path d="M211.5869,177.0078 L211.5869,174.0078 L217.5869,177.0078 L211.5869,180.0078 L211.5869,177.0078" fill="#181818"/><!--SRC=[PL7HJY9147oVh-X7DD40uSov5nC5z0m7mY7wtZlRBAD33-djMQFnuvt5ymWuRrFTLLtTTLafYbBEIwDEFS7zXkmml706Wy1Ah71bRLn7Z-e2GsiceQA-3_RvoBIEuOfVOOBoN2GAv0qCkaA58b0571JMg7O5-5yNDgXAmd2yvUENU6h72ko_cHgI386D8ist8RkbivyUWco1QVv4LXiTipC55p13mL9mipAmU-_GZzwJZbsb-_XK2X8glXU6j7JicedVQzjPVsDGsiSNcFi3Q12AJslxy6qGzvQsHJ-FXvGRLqOvm8Qk_cNC9N6n3SlCFB8-JCPGarJDLJgdtNRtnscdtLf4WhjGGxi7dLxMRMUzS-ZF5z3Kqz5_pyPGXIYMe4YBYSjZi-IH6M6DC8-iRaqPJ3V4e-6VBm2kkNOIU9toCAF7oQxXh7VIToaZacG57YSc7GwZryImeN1SPl2mk3dvQSR8PSGoQHERGKYwyfe1frm-0000]--></g></svg>