<svg xmlns="http://www.w3.org/2000/svg" xmlns:xlink="http://www.w3.org/1999/xlink" contentStyleType="text/css" data-diagram-type="EBNF" height="651px" preserveAspectRatio="none" style="width:562px;height:651px;background:#FFFFFF;" version="1.1" viewBox="0 0 562 651" width="562px" zoomAndPan="magnify"><title>SpecCompiler: Relations (spec_relations)</title><defs/><g><g class="title" data-source-line="1"><text fill="#000000" font-family="sans-serif" font-size="14" font-weight="bold" lengthAdjust="spacing" textLength="297.3154" x="129.6831" y="32.9951">SpecCompiler: Relations (spec_relations)</text></g><path d="M10,52.2969 L10,77.4297 L335.6621,77.4297 L335.6621,62.2969 L325.6621,52.2969 L10,52.2969" fill="#FEFFDD" style="stroke:#181818;stroke-width:0.5;"/><path d="M325.6621,52.2969 L325.6621,62.2969 L335.6621,62.2969 L325.6621,52.2969" fill="#FEFFDD" style="stroke:#181818;stroke-width:0.5;"/><text fill="#000000" font-family="sans-serif" font-size="13" lengthAdjust="spacing" textLength="296.3975" x="20.1323" y="69.3638">Standard Markdown links with special targets</text><path d="M10,97.4297 L10,122.5625 L431.4165,122.5625 L431.4165,107.4297 L421.4165,97.4297 L10,97.4297" fill="#FEFFDD" style="stroke:#181818;stroke-width:0.5;"/><path d="M421.4165,97.4297 L421.4165,107.4297 L431.4165,107.4297 L421.4165,97.4297" fill="#FEFFDD" style="stroke:#181818;stroke-width:0.5;"/><text fill="#000000" font-family="sans-serif" font-size="13" lengthAdjust="spacing" textLength="392.1519" x="20.1323" y="114.4966">Relation type is inferred at parse time, not explicit in syntax</text><text fill="#000000" font-family="sans-serif" font-size="14" font-weight="bold" lengthAdjust="spacing" textLength="113.2031" x="10" y="150.5576">spec_relations</text><rect fill="#F1F1F1" height="26.2969" rx="5" ry="5" style="stroke:#181818;stroke-width:1.5;" width="56.6211" x="64" y="163.8594"/><text fill="#000000" font-family="sans-serif" font-size="14" lengthAdjust="spacing" textLength="46.6211" x="69" y="181.8545">PIDRef</text><line style="stroke:#181818;stroke-width:1.5;" x1="40" x2="64" y1="177.0078" y2="177.0078"/><line style="stroke:#181818;stroke-width:1.5;" x1="120.6211" x2="172.8057" y1="177.0078" y2="177.0078"/><rect fill="#F1F1F1" height="26.2969" rx="5" ry="5" style="stroke:#181818;stroke-width:1.5;" width="71.0381" x="64" y="200.1563"/><text fill="#000000" font-family="sans-serif" font-size="14" lengthAdjust="spacing" textLength="61.0381" x="69" y="218.1514">LabelRef</text><path d="M52,201.3047 C52,210.3047 55,213.3047 64,213.3047" fill="none" style="stroke:#181818;stroke-width:1.5;"/><line style="stroke:#181818;stroke-width:1.5;" x1="135.0381" x2="148.8057" y1="213.3047" y2="213.3047"/><path d="M160.8057,201.3047 C160.8057,210.3047 157.8057,213.3047 148.8057,213.3047" fill="none" style="stroke:#181818;stroke-width:1.5;"/><rect fill="#F1F1F1" height="26.2969" rx="5" ry="5" style="stroke:#181818;stroke-width:1.5;" width="84.8057" x="64" y="236.4531"/><text fill="#000000" font-family="sans-serif" font-size="14" lengthAdjust="spacing" textLength="74.8057" x="69" y="254.4482">ScopedRef</text><line style="stroke:#181818;stroke-width:1.5;" x1="148.8057" x2="148.8057" y1="249.6016" y2="249.6016"/><path d="M52,237.6016 C52,246.6016 55,249.6016 64,249.6016" fill="none" style="stroke:#181818;stroke-width:1.5;"/><line style="stroke:#181818;stroke-width:1.5;" x1="52" x2="52" y1="189.0078" y2="237.6016"/><path d="M40,177.0078 C49,177.0078 52,180.0078 52,189.0078" fill="none" style="stroke:#181818;stroke-width:1.5;"/><path d="M160.8057,237.6016 C160.8057,246.6016 157.8057,249.6016 148.8057,249.6016" fill="none" style="stroke:#181818;stroke-width:1.5;"/><line style="stroke:#181818;stroke-width:1.5;" x1="160.8057" x2="160.8057" y1="189.0078" y2="237.6016"/><path d="M160.8057,189.0078 C160.8057,180.0078 163.8057,177.0078 172.8057,177.0078" fill="none" style="stroke:#181818;stroke-width:1.5;"/><ellipse cx="14" cy="177.0078" fill="none" rx="4" ry="4" style="stroke:#181818;stroke-width:2;"/><ellipse cx="202.8057" cy="177.0078" fill="#181818" rx="4" ry="4" style="stroke:#181818;stroke-width:1;"/><line style="stroke:#181818;stroke-width:1.5;" x1="18" x2="40" y1="177.0078" y2="177.0078"/><line style="stroke:#181818;stroke-width:1.5;" x1="172.8057" x2="198.8057" y1="177.0078" y2="177.0078"/><path d="M183.8057,177.0078 L183.8057,174.0078 L189.8057,177.0078 L183.8057,180.0078 L183.8057,177.0078" fill="#181818"/><path d="M10,282.75 L10,307.8828 L355.3843,307.8828 L355.3843,292.75 L345.3843,282.75 L10,282.75" fill="#FEFFDD" style="stroke:#181818;stroke-width:0.5;"/><path d="M345.3843,282.75 L345.3843,292.75 L355.3843,292.75 L345.3843,282.75" fill="#FEFFDD" style="stroke:#181818;stroke-width:0.5;"/><text fill="#000000" font-family="sans-serif" font-size="13" lengthAdjust="spacing" textLength="316.1196" x="20.1323" y="299.8169">[HLR-001](@) - reference by Persistent Identifier</text><text fill="#000000" font-family="sans-serif" font-size="14" font-weight="bold" lengthAdjust="spacing" textLength="53.457" x="10" y="335.8779">PIDRef</text><line style="stroke:#181818;stroke-width:1.5;" x1="40" x2="40" y1="362.3281" y2="362.3281"/><rect fill="none" height="26.2969" style="stroke:#181818;stroke-width:0.5;" width="15.4619" x="40" y="349.1797"/><text fill="#000000" font-family="sans-serif" font-size="14" lengthAdjust="spacing" textLength="5.4619" x="45" y="367.1748">[</text><line style="stroke:#181818;stroke-width:1.5;" x1="55.4619" x2="75.4619" y1="362.3281" y2="362.3281"/><rect fill="#F1F1F1" height="26.2969" rx="5" ry="5" style="stroke:#181818;stroke-width:1.5;" width="33.3516" x="75.4619" y="349.1797"/><text fill="#000000" font-family="sans-serif" font-size="14" lengthAdjust="spacing" textLength="23.3516" x="80.4619" y="367.1748">PID</text><line style="stroke:#181818;stroke-width:1.5;" x1="108.8135" x2="128.8135" y1="362.3281" y2="362.3281"/><rect fill="none" height="26.2969" style="stroke:#181818;stroke-width:0.5;" width="15.4619" x="128.8135" y="349.1797"/><text fill="#000000" font-family="sans-serif" font-size="14" lengthAdjust="spacing" textLength="5.4619" x="133.8135" y="367.1748">]</text><line style="stroke:#181818;stroke-width:1.5;" x1="144.2754" x2="164.2754" y1="362.3281" y2="362.3281"/><rect fill="none" height="26.2969" style="stroke:#181818;stroke-width:0.5;" width="15.4619" x="164.2754" y="349.1797"/><text fill="#000000" font-family="sans-serif" font-size="14" lengthAdjust="spacing" textLength="5.4619" x="169.2754" y="367.1748">(</text><line style="stroke:#181818;stroke-width:1.5;" x1="179.7373" x2="199.7373" y1="362.3281" y2="362.3281"/><rect fill="none" height="26.2969" style="stroke:#181818;stroke-width:0.5;" width="24" x="199.7373" y="349.1797"/><text fill="#000000" font-family="sans-serif" font-size="14" lengthAdjust="spacing" textLength="14" x="204.7373" y="367.1748">@</text><line style="stroke:#181818;stroke-width:1.5;" x1="223.7373" x2="243.7373" y1="362.3281" y2="362.3281"/><rect fill="none" height="26.2969" style="stroke:#181818;stroke-width:0.5;" width="15.4619" x="243.7373" y="349.1797"/><text fill="#000000" font-family="sans-serif" font-size="14" lengthAdjust="spacing" textLength="5.4619" x="248.7373" y="367.1748">)</text><ellipse cx="14" cy="362.3281" fill="none" rx="4" ry="4" style="stroke:#181818;stroke-width:2;"/><ellipse cx="289.1992" cy="362.3281" fill="#181818" rx="4" ry="4" style="stroke:#181818;stroke-width:1;"/><line style="stroke:#181818;stroke-width:1.5;" x1="18" x2="40" y1="362.3281" y2="362.3281"/><line style="stroke:#181818;stroke-width:1.5;" x1="259.1992" x2="285.1992" y1="362.3281" y2="362.3281"/><path d="M270.1992,362.3281 L270.1992,359.3281 L276.1992,362.3281 L270.1992,365.3281 L270.1992,362.3281" fill="#181818"/><path d="M10,395.4766 L10,420.6094 L461.0728,420.6094 L461.0728,405.4766 L451.0728,395.4766 L10,395.4766" fill="#FEFFDD" style="stroke:#181818;stroke-width:0.5;"/><path d="M451.0728,395.4766 L451.0728,405.4766 L461.0728,405.4766 L451.0728,395.4766" fill="#FEFFDD" style="stroke:#181818;stroke-width:0.5;"/><text fill="#000000" font-family="sans-serif" font-size="13" lengthAdjust="spacing" textLength="421.8081" x="20.1323" y="412.5435">[fig:diagram](#) or [diagram](#) - typed or plain cross-reference</text><text fill="#000000" font-family="sans-serif" font-size="14" font-weight="bold" lengthAdjust="spacing" textLength="69.0498" x="10" y="448.6045">LabelRef</text><line style="stroke:#181818;stroke-width:1.5;" x1="40" x2="40" y1="475.0547" y2="475.0547"/><rect fill="none" height="26.2969" style="stroke:#181818;stroke-width:0.5;" width="15.4619" x="40" y="461.9063"/><text fill="#000000" font-family="sans-serif" font-size="14" lengthAdjust="spacing" textLength="5.4619" x="45" y="479.9014">[</text><line style="stroke:#181818;stroke-width:1.5;" x1="55.4619" x2="75.4619" y1="475.0547" y2="475.0547"/><line style="stroke:#181818;stroke-width:1.5;" x1="75.4619" x2="242.4307" y1="475.0547" y2="475.0547"/><path d="M140.2494,475.0547 L140.2494,472.0547 L146.2494,475.0547 L140.2494,478.0547 L140.2494,475.0547" fill="#181818"/><path d="M75.4619,475.0547 C84.4619,475.0547 87.4619,477.6289 87.4619,486.6289 C87.4619,495.6289 90.4619,498.2031 99.4619,498.2031" fill="none" style="stroke:#181818;stroke-width:1.5;"/><path d="M218.4307,498.2031 C227.4307,498.2031 230.4307,495.6289 230.4307,486.6289 C230.4307,477.6289 233.4307,475.0547 242.4307,475.0547" fill="none" style="stroke:#181818;stroke-width:1.5;"/><line style="stroke:#181818;stroke-width:1.5;" x1="99.4619" x2="99.4619" y1="498.2031" y2="498.2031"/><rect fill="#F1F1F1" height="26.2969" rx="5" ry="5" style="stroke:#181818;stroke-width:1.5;" width="84.252" x="99.4619" y="485.0547"/><text fill="#000000" font-family="sans-serif" font-size="14" lengthAdjust="spacing" textLength="74.252" x="104.4619" y="503.0498">TypePrefix</text><line style="stroke:#181818;stroke-width:1.5;" x1="183.7139" x2="203.7139" y1="498.2031" y2="498.2031"/><rect fill="none" height="26.2969" style="stroke:#181818;stroke-width:0.5;" width="14.7168" x="203.7139" y="485.0547"/><text fill="#000000" font-family="sans-serif" font-size="14" lengthAdjust="spacing" textLength="4.7168" x="208.7139" y="503.0498">:</text><line style="stroke:#181818;stroke-width:1.5;" x1="242.4307" x2="262.4307" y1="475.0547" y2="475.0547"/><rect fill="#F1F1F1" height="26.2969" rx="5" ry="5" style="stroke:#181818;stroke-width:1.5;" width="47.7686" x="262.4307" y="461.9063"/><text fill="#000000" font-family="sans-serif" font-size="14" lengthAdjust="spacing" textLength="37.7686" x="267.4307" y="479.9014">Label</text><line style="stroke:#181818;stroke-width:1.5;" x1="310.1992" x2="330.1992" y1="475.0547" y2="475.0547"/><rect fill="none" height="26.2969" style="stroke:#181818;stroke-width:0.5;" width="15.4619" x="330.1992" y="461.9063"/><text fill="#000000" font-family="sans-serif" font-size="14" lengthAdjust="spacing" textLength="5.4619" x="335.1992" y="479.9014">]</text><line style="stroke:#181818;stroke-width:1.5;" x1="345.6611" x2="365.6611" y1="475.0547" y2="475.0547"/><rect fill="none" height="26.2969" style="stroke:#181818;stroke-width:0.5;" width="15.4619" x="365.6611" y="461.9063"/><text fill="#000000" font-family="sans-serif" font-size="14" lengthAdjust="spacing" textLength="5.4619" x="370.6611" y="479.9014">(</text><line style="stroke:#181818;stroke-width:1.5;" x1="381.123" x2="401.123" y1="475.0547" y2="475.0547"/><rect fill="none" height="26.2969" style="stroke:#181818;stroke-width:0.5;" width="21.7305" x="401.123" y="461.9063"/><text fill="#000000" font-family="sans-serif" font-size="14" lengthAdjust="spacing" textLength="11.7305" x="406.123" y="479.9014">#</text><line style="stroke:#181818;stroke-width:1.5;" x1="422.8535" x2="442.8535" y1="475.0547" y2="475.0547"/><rect fill="none" height="26.2969" style="stroke:#181818;stroke-width:0.5;" width="15.4619" x="442.8535" y="461.9063"/><text fill="#000000" font-family="sans-serif" font-size="14" lengthAdjust="spacing" textLength="5.4619" x="447.8535" y="479.9014">)</text><ellipse cx="14" cy="475.0547" fill="none" rx="4" ry="4" style="stroke:#181818;stroke-width:2;"/><ellipse cx="488.3154" cy="475.0547" fill="#181818" rx="4" ry="4" style="stroke:#181818;stroke-width:1;"/><line style="stroke:#181818;stroke-width:1.5;" x1="18" x2="40" y1="475.0547" y2="475.0547"/><line style="stroke:#181818;stroke-width:1.5;" x1="458.3154" x2="484.3154" y1="475.0547" y2="475.0547"/><path d="M469.3154,475.0547 L469.3154,472.0547 L475.3154,475.0547 L469.3154,478.0547 L469.3154,475.0547" fill="#181818"/><path d="M10,531.3516 L10,556.4844 L371.4756,556.4844 L371.4756,541.3516 L361.4756,531.3516 L10,531.3516" fill="#FEFFDD" style="stroke:#181818;stroke-width:0.5;"/><path d="M361.4756,531.3516 L361.4756,541.3516 L371.4756,541.3516 L361.4756,531.3516" fill="#FEFFDD" style="stroke:#181818;stroke-width:0.5;"/><text fill="#000000" font-family="sans-serif" font-size="13" lengthAdjust="spacing" textLength="332.2109" x="20.1323" y="548.4185">[REQ-001:fig:diagram](#) - scoped cross-reference</text><text fill="#000000" font-family="sans-serif" font-size="14" font-weight="bold" lengthAdjust="spacing" textLength="83.9043" x="10" y="584.4795">ScopedRef</text><line style="stroke:#181818;stroke-width:1.5;" x1="40" x2="40" y1="610.9297" y2="610.9297"/><rect fill="none" height="26.2969" style="stroke:#181818;stroke-width:0.5;" width="15.4619" x="40" y="597.7813"/><text fill="#000000" font-family="sans-serif" font-size="14" lengthAdjust="spacing" textLength="5.4619" x="45" y="615.7764">[</text><line style="stroke:#181818;stroke-width:1.5;" x1="55.4619" x2="75.4619" y1="610.9297" y2="610.9297"/><rect fill="#F1F1F1" height="26.2969" rx="5" ry="5" style="stroke:#181818;stroke-width:1.5;" width="52.6494" x="75.4619" y="597.7813"/><text fill="#000000" font-family="sans-serif" font-size="14" lengthAdjust="spacing" textLength="42.6494" x="80.4619" y="615.7764">Scope</text><line style="stroke:#181818;stroke-width:1.5;" x1="128.1113" x2="148.1113" y1="610.9297" y2="610.9297"/><rect fill="none" height="26.2969" style="stroke:#181818;stroke-width:0.5;" width="14.7168" x="148.1113" y="597.7813"/><text fill="#000000" font-family="sans-serif" font-size="14" lengthAdjust="spacing" textLength="4.7168" x="153.1113" y="615.7764">:</text><line style="stroke:#181818;stroke-width:1.5;" x1="162.8281" x2="182.8281" y1="610.9297" y2="610.9297"/><rect fill="#F1F1F1" height="26.2969" rx="5" ry="5" style="stroke:#181818;stroke-width:1.5;" width="84.252" x="182.8281" y="597.7813"/><text fill="#000000" font-family="sans-serif" font-size="14" lengthAdjust="spacing" textLength="74.252" x="187.8281" y="615.7764">TypePrefix</text><line style="stroke:#181818;stroke-width:1.5;" x1="267.0801" x2="287.0801" y1="610.9297" y2="610.9297"/><rect fill="none" height="26.2969" style="stroke:#181818;stroke-width:0.5;" width="14.7168" x="287.0801" y="597.7813"/><text fill="#000000" font-family="sans-serif" font-size="14" lengthAdjust="spacing" textLength="4.7168" x="292.0801" y="615.7764">:</text><line style="stroke:#181818;stroke-width:1.5;" x1="301.7969" x2="321.7969" y1="610.9297" y2="610.9297"/><rect fill="#F1F1F1" height="26.2969" rx="5" ry="5" style="stroke:#181818;stroke-width:1.5;" width="47.7686" x="321.7969" y="597.7813"/><text fill="#000000" font-family="sans-serif" font-size="14" lengthAdjust="spacing" textLength="37.7686" x="326.7969" y="615.7764">Label</text><line style="stroke:#181818;stroke-width:1.5;" x1="369.5654" x2="389.5654" y1="610.9297" y2="610.9297"/><rect fill="none" height="26.2969" style="stroke:#181818;stroke-width:0.5;" width="15.4619" x="389.5654" y="597.7813"/><text fill="#000000" font-family="sans-serif" font-size="14" lengthAdjust="spacing" textLength="5.4619" x="394.5654" y="615.7764">]</text><line style="stroke:#181818;stroke-width:1.5;" x1="405.0273" x2="425.0273" y1="610.9297" y2="610.9297"/><rect fill="none" height="26.2969" style="stroke:#181818;stroke-width:0.5;" width="15.4619" x="425.0273" y="597.7813"/><text fill="#000000" font-family="sans-serif" font-size="14" lengthAdjust="spacing" textLength="5.4619" x="430.0273" y="615.7764">(</text><line style="stroke:#181818;stroke-width:1.5;" x1="440.4893" x2="460.4893" y1="610.9297" y2="610.9297"/><rect fill="none" height="26.2969" style="stroke:#181818;stroke-width:0.5;" width="21.7305" x="460.4893" y="597.7813"/><text fill="#000000" font-family="sans-serif" font-size="14" lengthAdjust="spacing" textLength="11.7305" x="465.4893" y="615.7764">#</text><line style="stroke:#181818;stroke-width:1.5;" x1="482.2197" x2="502.2197" y1="610.9297" y2="610.9297"/><rect fill="none" height="26.2969" style="stroke:#181818;stroke-width:0.5;" width="15.4619" x="502.2197" y="597.7813"/><text fill="#000000" font-family="sans-serif" font-size="14" lengthAdjust="spacing" textLength="5.4619" x="507.2197" y="615.7764">)</text><ellipse cx="14" cy="610.9297" fill="none" rx="4" ry="4" style="stroke:#181818;stroke-width:2;"/><ellipse cx="547.6816" cy="610.9297" fill="#181818" rx="4" ry="4" style="stroke:#181818;stroke-width:1;"/><line style="stroke:#181818;stroke-width:1.5;" x1="18" x2="40" y1="610.9297" y2="610.9297"/><line style="stroke:#181818;stroke-width:1.5;" x1="517.6816" x2="543.6816" y1="610.9297" y2="610.9297"/><path d="M528.6816,610.9297 L528.6816,607.9297 L534.6816,610.9297 L528.6816,613.9297 L528.6816,610.9297" fill="#181818"/><!--SRC=[VL9TRzf047pthnWvBoR2aK6qIbr5GYbf6mefDIGl25M7lNPFCMVhxan0we_ldWD9YQg-hFRsTcTcFuR62crfhNBFIbiIvZMbe-f9nKYe55PMoY0m7FofZ- -E5vnZReNAXCum5VenumAKKZqQF4dx2ovVYXACNP0rE6zBZe2m-veW3QJAIMlA82ngeGt1oWrreIeBsjMbJANb99YzicBdKBnJ9RZ2x7QKK8xVc8WrbS_kFArgojZ_w3dUvTT94aPHRnKCEmYXYLb9fOJr7ZFIHXfBok8sOojpITen7N2lu2_zhcFfmb-nvmVE39tf-0VyN1Pn9aMXnMOLd7LGQIp_VeTjnvcBrwNWXb9T6HE-2c6-5_a7nYKMN3FZ7BbZhjZ7gllSuucGinCXoSqFrsZyLb08quxaNyGlmpeoju6MiljMm_yL34bbxILvir8eUp-TOEl6onllNVIZ_hkBNXGi6i9TjKKqG6yGzwDuy07NoGBkdw_aosm2KpMQjMMy5otNZTjqnnkBhK3IA7SXCRxNfCQZRyS0RjHMwafjU8FU-67wcl1-45xp4Sr9inGyJBqHvQ8fBLUaLIPL4UD-yJcyvFcheX45OvFoFbMCg_SnL5EMVm00]--></g></svg>