<svg xmlns="http://www.w3.org/2000/svg" xmlns:xlink="http://www.w3.org/1999/xlink" contentStyleType="text/css" data-diagram-type="EBNF" height="525px" preserveAspectRatio="none" style="width:540px;height:525px;background:#FFFFFF;" version="1.1" viewBox="0 0 540 525" width="540px" zoomAndPan="magnify"><title>SpecCompiler: Views (spec_views)</title><defs/><g><g class="title" data-source-line="1"><text fill="#000000" font-family="sans-serif" font-size="14" font-weight="bold" lengthAdjust="spacing" textLength="244.4121" x="144.8638" y="32.9951">SpecCompiler: Views (spec_views)</text></g><path d="M10,52.2969 L10,77.4297 L386.5449,77.4297 L386.5449,62.2969 L376.5449,52.2969 L10,52.2969" fill="#FEFFDD" style="stroke:#181818;stroke-width:0.5;"/><path d="M376.5449,52.2969 L376.5449,62.2969 L386.5449,62.2969 L376.5449,52.2969" fill="#FEFFDD" style="stroke:#181818;stroke-width:0.5;"/><text fill="#000000" font-family="sans-serif" font-size="13" lengthAdjust="spacing" textLength="347.2803" x="20.1323" y="69.3638">Views are dynamic queries materialized at build time</text><path d="M10,97.4297 L10,122.5625 L348.2241,122.5625 L348.2241,107.4297 L338.2241,97.4297 L10,97.4297" fill="#FEFFDD" style="stroke:#181818;stroke-width:0.5;"/><path d="M338.2241,97.4297 L338.2241,107.4297 L348.2241,107.4297 L338.2241,97.4297" fill="#FEFFDD" style="stroke:#181818;stroke-width:0.5;"/><text fill="#000000" font-family="sans-serif" font-size="13" lengthAdjust="spacing" textLength="308.9595" x="20.1323" y="114.4966">Prefixes must be registered in spec_view_types</text><text fill="#000000" font-family="sans-serif" font-size="14" font-weight="bold" lengthAdjust="spacing" textLength="87.835" x="10" y="150.5576">spec_views</text><rect fill="#F1F1F1" height="26.2969" rx="5" ry="5" style="stroke:#181818;stroke-width:1.5;" width="81.7979" x="64" y="163.8594"/><text fill="#000000" font-family="sans-serif" font-size="14" lengthAdjust="spacing" textLength="71.7979" x="69" y="181.8545">InlineView</text><line style="stroke:#181818;stroke-width:1.5;" x1="40" x2="64" y1="177.0078" y2="177.0078"/><line style="stroke:#181818;stroke-width:1.5;" x1="145.7979" x2="169.7979" y1="177.0078" y2="177.0078"/><rect fill="#F1F1F1" height="26.2969" rx="5" ry="5" style="stroke:#181818;stroke-width:1.5;" width="81.3945" x="64" y="200.1563"/><text fill="#000000" font-family="sans-serif" font-size="14" lengthAdjust="spacing" textLength="71.3945" x="69" y="218.1514">BlockView</text><line style="stroke:#181818;stroke-width:1.5;" x1="145.3945" x2="145.7979" y1="213.3047" y2="213.3047"/><path d="M52,201.3047 C52,210.3047 55,213.3047 64,213.3047" fill="none" style="stroke:#181818;stroke-width:1.5;"/><line style="stroke:#181818;stroke-width:1.5;" x1="52" x2="52" y1="189.0078" y2="201.3047"/><path d="M40,177.0078 C49,177.0078 52,180.0078 52,189.0078" fill="none" style="stroke:#181818;stroke-width:1.5;"/><path d="M157.7979,201.3047 C157.7979,210.3047 154.7979,213.3047 145.7979,213.3047" fill="none" style="stroke:#181818;stroke-width:1.5;"/><line style="stroke:#181818;stroke-width:1.5;" x1="157.7979" x2="157.7979" y1="189.0078" y2="201.3047"/><path d="M157.7979,189.0078 C157.7979,180.0078 160.7979,177.0078 169.7979,177.0078" fill="none" style="stroke:#181818;stroke-width:1.5;"/><ellipse cx="14" cy="177.0078" fill="none" rx="4" ry="4" style="stroke:#181818;stroke-width:2;"/><ellipse cx="199.7979" cy="177.0078" fill="#181818" rx="4" ry="4" style="stroke:#181818;stroke-width:1;"/><line style="stroke:#181818;stroke-width:1.5;" x1="18" x2="40" y1="177.0078" y2="177.0078"/><line style="stroke:#181818;stroke-width:1.5;" x1="169.7979" x2="195.7979" y1="177.0078" y2="177.0078"/><path d="M180.7979,177.0078 L180.7979,174.0078 L186.7979,177.0078 L180.7979,180.0078 L180.7979,177.0078" fill="#181818"/><path d="M10,246.4531 L10,271.5859 L386.5703,271.5859 L386.5703,256.4531 L376.5703,246.4531 L10,246.4531" fill="#FEFFDD" style="stroke:#181818;stroke-width:0.5;"/><path d="M376.5703,246.4531 L376.5703,256.4531 L386.5703,256.4531 L376.5703,246.4531" fill="#FEFFDD" style="stroke:#181818;stroke-width:0.5;"/><text fill="#000000" font-family="sans-serif" font-size="13" lengthAdjust="spacing" textLength="347.3057" x="20.1323" y="263.52">Inline: backtick view like `toc:` or `select: WHERE ...`</text><text fill="#000000" font-family="sans-serif" font-size="14" font-weight="bold" lengthAdjust="spacing" textLength="82.2979" x="10" y="299.5811">InlineView</text><line style="stroke:#181818;stroke-width:1.5;" x1="40" x2="40" y1="326.0313" y2="326.0313"/><rect fill="none" height="26.2969" style="stroke:#181818;stroke-width:0.5;" width="17" x="40" y="312.8828"/><text fill="#000000" font-family="sans-serif" font-size="14" lengthAdjust="spacing" textLength="7" x="45" y="330.8779">`</text><line style="stroke:#181818;stroke-width:1.5;" x1="57" x2="77" y1="326.0313" y2="326.0313"/><rect fill="#F1F1F1" height="26.2969" rx="5" ry="5" style="stroke:#181818;stroke-width:1.5;" width="83.4453" x="77" y="312.8828"/><text fill="#000000" font-family="sans-serif" font-size="14" lengthAdjust="spacing" textLength="73.4453" x="82" y="330.8779">ViewPrefix</text><line style="stroke:#181818;stroke-width:1.5;" x1="160.4453" x2="180.4453" y1="326.0313" y2="326.0313"/><rect fill="none" height="26.2969" style="stroke:#181818;stroke-width:0.5;" width="14.7168" x="180.4453" y="312.8828"/><text fill="#000000" font-family="sans-serif" font-size="14" lengthAdjust="spacing" textLength="4.7168" x="185.4453" y="330.8779">:</text><line style="stroke:#181818;stroke-width:1.5;" x1="195.1621" x2="215.1621" y1="326.0313" y2="326.0313"/><line style="stroke:#181818;stroke-width:1.5;" x1="215.1621" x2="362.3711" y1="326.0313" y2="326.0313"/><path d="M272.0457,326.0313 L272.0457,323.0313 L278.0457,326.0313 L272.0457,329.0313 L272.0457,326.0313" fill="#181818"/><path d="M215.1621,326.0313 C224.1621,326.0313 227.1621,328.6055 227.1621,337.6055 C227.1621,346.6055 230.1621,349.1797 239.1621,349.1797" fill="none" style="stroke:#181818;stroke-width:1.5;"/><path d="M338.3711,349.1797 C347.3711,349.1797 350.3711,346.6055 350.3711,337.6055 C350.3711,328.6055 353.3711,326.0313 362.3711,326.0313" fill="none" style="stroke:#181818;stroke-width:1.5;"/><rect fill="#F1F1F1" height="26.2969" rx="5" ry="5" style="stroke:#181818;stroke-width:1.5;" width="99.209" x="239.1621" y="336.0313"/><text fill="#000000" font-family="sans-serif" font-size="14" lengthAdjust="spacing" textLength="89.209" x="244.1621" y="354.0264">ViewContent</text><line style="stroke:#181818;stroke-width:1.5;" x1="362.3711" x2="382.3711" y1="326.0313" y2="326.0313"/><rect fill="none" height="26.2969" style="stroke:#181818;stroke-width:0.5;" width="17" x="382.3711" y="312.8828"/><text fill="#000000" font-family="sans-serif" font-size="14" lengthAdjust="spacing" textLength="7" x="387.3711" y="330.8779">`</text><ellipse cx="14" cy="326.0313" fill="none" rx="4" ry="4" style="stroke:#181818;stroke-width:2;"/><ellipse cx="429.3711" cy="326.0313" fill="#181818" rx="4" ry="4" style="stroke:#181818;stroke-width:1;"/><line style="stroke:#181818;stroke-width:1.5;" x1="18" x2="40" y1="326.0313" y2="326.0313"/><line style="stroke:#181818;stroke-width:1.5;" x1="399.3711" x2="425.3711" y1="326.0313" y2="326.0313"/><path d="M410.3711,326.0313 L410.3711,323.0313 L416.3711,326.0313 L410.3711,329.0313 L410.3711,326.0313" fill="#181818"/><path d="M10,382.3281 L10,407.4609 L344.917,407.4609 L344.917,392.3281 L334.917,382.3281 L10,382.3281" fill="#FEFFDD" style="stroke:#181818;stroke-width:0.5;"/><path d="M334.917,382.3281 L334.917,392.3281 L344.917,392.3281 L334.917,382.3281" fill="#FEFFDD" style="stroke:#181818;stroke-width:0.5;"/><text fill="#000000" font-family="sans-serif" font-size="13" lengthAdjust="spacing" textLength="305.6523" x="20.1323" y="399.395">Block: fenced view like ```select:tbl-reqs ... ```</text><text fill="#000000" font-family="sans-serif" font-size="14" font-weight="bold" lengthAdjust="spacing" textLength="80.7598" x="10" y="435.4561">BlockView</text><line style="stroke:#181818;stroke-width:1.5;" x1="40" x2="40" y1="461.9063" y2="461.9063"/><rect fill="none" height="26.2969" style="stroke:#181818;stroke-width:0.5;" width="31" x="40" y="448.7578"/><text fill="#000000" font-family="sans-serif" font-size="14" lengthAdjust="spacing" textLength="21" x="45" y="466.7529">```</text><line style="stroke:#181818;stroke-width:1.5;" x1="71" x2="91" y1="461.9063" y2="461.9063"/><rect fill="#F1F1F1" height="26.2969" rx="5" ry="5" style="stroke:#181818;stroke-width:1.5;" width="83.4453" x="91" y="448.7578"/><text fill="#000000" font-family="sans-serif" font-size="14" lengthAdjust="spacing" textLength="73.4453" x="96" y="466.7529">ViewPrefix</text><line style="stroke:#181818;stroke-width:1.5;" x1="174.4453" x2="194.4453" y1="461.9063" y2="461.9063"/><line style="stroke:#181818;stroke-width:1.5;" x1="194.4453" x2="324.9307" y1="461.9063" y2="461.9063"/><path d="M244.6395,461.9063 L244.6395,458.9063 L250.6395,461.9063 L244.6395,464.9063 L244.6395,461.9063" fill="#181818"/><path d="M194.4453,461.9063 C203.4453,461.9063 206.4453,464.4805 206.4453,473.4805 C206.4453,482.4805 209.4453,485.0547 218.4453,485.0547" fill="none" style="stroke:#181818;stroke-width:1.5;"/><path d="M300.9307,485.0547 C309.9307,485.0547 312.9307,482.4805 312.9307,473.4805 C312.9307,464.4805 315.9307,461.9063 324.9307,461.9063" fill="none" style="stroke:#181818;stroke-width:1.5;"/><line style="stroke:#181818;stroke-width:1.5;" x1="218.4453" x2="218.4453" y1="485.0547" y2="485.0547"/><rect fill="none" height="26.2969" style="stroke:#181818;stroke-width:0.5;" width="14.7168" x="218.4453" y="471.9063"/><text fill="#000000" font-family="sans-serif" font-size="14" lengthAdjust="spacing" textLength="4.7168" x="223.4453" y="489.9014">:</text><line style="stroke:#181818;stroke-width:1.5;" x1="233.1621" x2="253.1621" y1="485.0547" y2="485.0547"/><rect fill="#F1F1F1" height="26.2969" rx="5" ry="5" style="stroke:#181818;stroke-width:1.5;" width="47.7686" x="253.1621" y="471.9063"/><text fill="#000000" font-family="sans-serif" font-size="14" lengthAdjust="spacing" textLength="37.7686" x="258.1621" y="489.9014">Label</text><line style="stroke:#181818;stroke-width:1.5;" x1="324.9307" x2="344.9307" y1="461.9063" y2="461.9063"/><rect fill="#F1F1F1" height="26.2969" rx="5" ry="5" style="stroke:#181818;stroke-width:1.5;" width="99.209" x="344.9307" y="448.7578"/><text fill="#000000" font-family="sans-serif" font-size="14" lengthAdjust="spacing" textLength="89.209" x="349.9307" y="466.7529">ViewContent</text><line style="stroke:#181818;stroke-width:1.5;" x1="444.1396" x2="464.1396" y1="461.9063" y2="461.9063"/><rect fill="none" height="26.2969" style="stroke:#181818;stroke-width:0.5;" width="31" x="464.1396" y="448.7578"/><text fill="#000000" font-family="sans-serif" font-size="14" lengthAdjust="spacing" textLength="21" x="469.1396" y="466.7529">```</text><ellipse cx="14" cy="461.9063" fill="none" rx="4" ry="4" style="stroke:#181818;stroke-width:2;"/><ellipse cx="525.1396" cy="461.9063" fill="#181818" rx="4" ry="4" style="stroke:#181818;stroke-width:1;"/><line style="stroke:#181818;stroke-width:1.5;" x1="18" x2="40" y1="461.9063" y2="461.9063"/><line style="stroke:#181818;stroke-width:1.5;" x1="495.1396" x2="521.1396" y1="461.9063" y2="461.9063"/><path d="M506.1396,461.9063 L506.1396,458.9063 L512.1396,461.9063 L506.1396,464.9063 L506.1396,461.9063" fill="#181818"/><!--SRC=[NP5RRnen48NVzrSSyKGYM06YLUigKaIW5mej8eG-H5NMQmPaOMpYowPK_V6rTvi4zMrqvinyPpJNpdFhgTJRp4kl2BT74cFpf1dMafuSsYuA3rMgBxBsvJ-LMyBcfFb12Zm6if8S3jp7WYlvcpRW7cMGQWCl3uJBUdHXQIj_9MTmiKsmj9Ck3aM_r7W1FVZJCRhYKFOAnnM-Q2KrfG3uWv4oOf_g3rdQtVGOIYxsNeezqX2Kt1CARmGhO2mAHug4P_ZnURAS8C_p8b7EzbwXLRGwzP5DsWvQB0htjNHZj2VjyREJR0supi6m9ItY6MVKufdcIzMrzEWIBya9-PA-9XR_C-yRweoNf1Bj3Dvf_15-JNfJFovRAAxztNo6YgoJHgEV3tg3Dtc_rru5mZTJeJT4VyW6FJPyZz5oXTIFJ_cqcC6PO4LyPto5bMNmSS55DkKLnpBez3w6xqVIq_7NPm4JNKbhz27coQRh-QlXxR0xaXwtP6CKhEVPcBOyA1ydXDb8lMEuMttilijcNEy2tyNTfBCR4_VQ4uCEIlq5]--></g></svg>